<?xml version="1.0" encoding="utf-8"?>
<!-- Generator: Adobe Illustrator 18.1.1, SVG Export Plug-In . SVG Version: 6.00 Build 0)  -->
<!DOCTYPE svg PUBLIC "-//W3C//DTD SVG 1.1//EN" "http://www.w3.org/Graphics/SVG/1.1/DTD/svg11.dtd">
<svg version="1.1" id="Capa_1" xmlns="http://www.w3.org/2000/svg" xmlns:xlink="http://www.w3.org/1999/xlink" x="0px" y="0px"
	 viewBox="0 0 50.7 33.6" enable-background="new 0 0 50.7 33.6" xml:space="preserve">
<g>
	<g transform="translate(0,-952.36218)">
		<path fill="#D93434" d="M16.5,985.6c-9.1,0-16.5-7.4-16.5-16.5c0-9.1,7.4-16.5,16.5-16.5c9.1,0,16.5,7.4,16.5,16.5
			C32.9,978.3,25.5,985.6,16.5,985.6z M16.5,954.3c-8.2,0-14.8,6.7-14.8,14.8c0,8.2,6.7,14.8,14.8,14.8c8.2,0,14.8-6.7,14.8-14.8
			C31.3,961,24.6,954.3,16.5,954.3z M16.5,978.6c-5.2,0-9.4-4.2-9.4-9.4c0-5.2,4.2-9.4,9.4-9.4c5.2,0,9.4,4.2,9.4,9.4
			S21.6,978.6,16.5,978.6z M16.5,961.4c-4.3,0-7.8,3.5-7.8,7.7c0,4.3,3.5,7.8,7.8,7.8c4.3,0,7.7-3.5,7.7-7.8
			C24.2,964.9,20.7,961.4,16.5,961.4z"/>
	</g>
	<g>
		<path fill="#D93434" d="M37.3,33.6c-0.9,0-1.7-0.8-1.7-1.7V12.1c-1.7-0.9-2.9-3.2-2.9-5.7C32.8,2.8,35,0,37.6,0s4.8,2.8,4.8,6.3
			c0,2.5-1.1,4.8-2.9,5.8l0,19.8c0,0.9-0.8,1.7-1.7,1.7H37.3z M37.6,1.5c-1.9,0-3.4,2.2-3.4,4.9c0,2.1,1,4,2.4,4.7l0.4,0.2l0,20.7
			c0,0.1,0.1,0.3,0.3,0.3h0.6c0.1,0,0.3-0.1,0.3-0.3V11.2l0.4-0.2C40,10.4,41,8.5,41,6.3C41,3.6,39.5,1.5,37.6,1.5z"/>
	</g>
	<g>
		<path fill="#D93434" d="M46.6,33.6c-0.9,0-1.7-0.8-1.7-1.7V12.4c-1.1-0.6-1.7-1.8-1.7-3.1V0.9c0-0.4,0.3-0.7,0.7-0.7
			s0.7,0.3,0.7,0.7l0,8.3c0,0.9,0.5,1.7,1.3,2.1l0.4,0.2l0,20.4c0,0.1,0.1,0.3,0.3,0.3h0.6c0.1,0,0.3-0.1,0.3-0.3V11.6l0.4-0.2
			c0.8-0.4,1.3-1.2,1.3-2.1V0.9c0-0.4,0.3-0.7,0.7-0.7c0.4,0,0.7,0.3,0.7,0.7v8.3c0,1.3-0.7,2.5-1.8,3.2l0,19.5
			c0,0.5-0.2,0.9-0.5,1.2c-0.3,0.3-0.8,0.5-1.2,0.5H46.6z"/>
	</g>
	<g>
		<path fill="#D93434" d="M46,7.7c-0.4,0-0.7-0.3-0.7-0.7v-6c0-0.4,0.3-0.7,0.7-0.7c0.4,0,0.7,0.3,0.7,0.7v6
			C46.7,7.3,46.4,7.7,46,7.7z"/>
	</g>
	<g>
		<path fill="#D93434" d="M47.9,7.7c-0.4,0-0.7-0.3-0.7-0.7v-6c0-0.4,0.3-0.7,0.7-0.7c0.4,0,0.7,0.3,0.7,0.7v6
			C48.6,7.3,48.3,7.7,47.9,7.7z"/>
	</g>
</g>
</svg>
