<?xml version="1.0" encoding="utf-8"?>
<!-- Generator: Adobe Illustrator 19.2.0, SVG Export Plug-In . SVG Version: 6.00 Build 0)  -->
<svg version="1.1" id="Capa_1" xmlns="http://www.w3.org/2000/svg" xmlns:xlink="http://www.w3.org/1999/xlink" x="0px" y="0px"
	 viewBox="0 0 195.7 130" style="enable-background:new 0 0 195.7 130;" xml:space="preserve">
<style type="text/css">
	.st0{fill:#E55656;}
</style>
<g>
	<g transform="translate(0,-952.36218)">
		<path class="st0" d="M63.7,1081.1c-35.1,0-63.7-28.6-63.7-63.7s28.6-63.7,63.7-63.7s63.7,28.6,63.7,63.7
			C127.3,1052.5,98.7,1081.1,63.7,1081.1z M63.7,960.1c-31.6,0-57.3,25.7-57.3,57.3c0,31.6,25.7,57.3,57.3,57.3s57.3-25.7,57.3-57.3
			C121,985.8,95.3,960.1,63.7,960.1z M63.7,1053.6c-20,0-36.2-16.3-36.2-36.2c0-19.9,16.3-36.2,36.2-36.2s36.2,16.3,36.2,36.2
			C99.9,1037.3,83.7,1053.6,63.7,1053.6z M63.7,987.4c-16.5,0-30,13.4-30,30c0,16.5,13.4,30,30,30c16.5,0,30-13.4,30-30
			C93.6,1000.8,80.1,987.4,63.7,987.4z"/>
	</g>
	<g>
		<path class="st0" d="M144.4,130c-3.6,0-6.6-3-6.6-6.6V46.7c-6.6-3.6-11-12.5-11-22.1C126.8,11,135.2,0,145.5,0
			c10.4,0,18.7,11,18.7,24.4c0,9.7-4.4,18.5-11.1,22.4l0.1,76.5c0,3.6-3,6.6-6.6,6.6H144.4z M145.5,5.7c-7.2,0-13.1,8.4-13.1,18.9
			c0,8.1,3.8,15.6,9.4,18l1.5,0.7l0.2,80.2c0,0.6,0.5,1,1,1h2.2c0.6,0,1-0.5,1-1v-80l1.6-1c5.5-2.4,9.4-9.9,9.4-18
			C158.7,14.1,152.8,5.7,145.5,5.7z"/>
	</g>
	<g>
		<path class="st0" d="M180.3,130c-3.6,0-6.6-3-6.6-6.6V47.7c-4.1-2.4-6.7-7.1-6.7-12.1V3.5c0-1.5,1.2-2.8,2.8-2.8
			c1.5,0,2.8,1.2,2.8,2.8v32.2c0,3.5,2,6.5,5.1,8.1l1.4,0.7l0.2,79c0,0.6,0.5,1,1,1h2.2c0.6,0,1-0.5,1-1V44.7l1.6-1
			c3.1-1.4,5.1-4.6,5.1-8.1V3.5c0-1.5,1.2-2.8,2.8-2.8c1.5,0,2.8,1.2,2.8,2.8v32.2c0,5-2.6,9.7-6.9,12.3l0.1,75.4
			c0,1.7-0.7,3.5-1.9,4.7c-1.2,1.2-2.9,1.9-4.7,1.9L180.3,130L180.3,130z"/>
	</g>
	<g>
		<path class="st0" d="M177.8,29.6c-1.5,0-2.8-1.2-2.8-2.8V3.5c0-1.5,1.2-2.8,2.8-2.8s2.8,1.2,2.8,2.8v23.4
			C180.6,28.4,179.4,29.6,177.8,29.6z"/>
	</g>
	<g>
		<path class="st0" d="M185.1,29.6c-1.5,0-2.8-1.2-2.8-2.8V3.5c0-1.5,1.2-2.8,2.8-2.8c1.5,0,2.8,1.2,2.8,2.8v23.4
			C187.9,28.4,186.7,29.6,185.1,29.6z"/>
	</g>
</g>
</svg>
