<?xml version="1.0" encoding="utf-8"?>
<!-- Generator: Adobe Illustrator 19.2.0, SVG Export Plug-In . SVG Version: 6.00 Build 0)  -->
<svg version="1.1" id="Capa_1" xmlns="http://www.w3.org/2000/svg" xmlns:xlink="http://www.w3.org/1999/xlink" x="0px" y="0px"
	 viewBox="0 0 113.5 144.9" style="enable-background:new 0 0 113.5 144.9;" xml:space="preserve">
<style type="text/css">
	.st0{fill:#E55656;}
	.st1{fill:none;}
	.st2{clip-path:url(#SVGID_2_);fill:#E55656;}
	.st3{clip-path:url(#SVGID_4_);fill:#E55656;}
	.st4{clip-path:url(#SVGID_6_);fill:#E55656;}
	.st5{clip-path:url(#SVGID_8_);fill:#E55656;}
	.st6{clip-path:url(#SVGID_10_);fill:#E55656;}
	.st7{clip-path:url(#SVGID_12_);fill:#E55656;}
	.st8{clip-path:url(#SVGID_14_);fill:#E55656;}
	.st9{clip-path:url(#SVGID_16_);fill:#E55656;}
	.st10{clip-path:url(#SVGID_18_);fill:#E55656;}
	.st11{clip-path:url(#SVGID_20_);fill:#E55656;}
	.st12{clip-path:url(#SVGID_22_);fill:#E55656;}
	.st13{clip-path:url(#SVGID_24_);fill:#E55656;}
	.st14{clip-path:url(#SVGID_26_);fill:#E55656;}
	.st15{clip-path:url(#SVGID_28_);fill:#E55656;}
</style>
<rect x="23.1" y="24.2" class="st0" width="64.4" height="4.4"/>
<rect x="63.1" y="13.1" class="st0" width="26.7" height="4.4"/>
<g>
	<rect class="st1" width="113.5" height="144.9"/>
	<rect class="st1" width="113.5" height="144.9"/>
	<rect class="st1" width="113.5" height="144.9"/>
	<rect class="st1" width="113.5" height="144.9"/>
	<g>
		<defs>
			<rect id="SVGID_1_" width="113.5" height="144.9"/>
		</defs>
		<clipPath id="SVGID_2_">
			<use xlink:href="#SVGID_1_"  style="overflow:visible;"/>
		</clipPath>
		<path class="st2" d="M102.5,35L102.5,35c0,0-0.1,0-0.1,0V8.7c0-4.9-4.5-8.7-9.4-8.7H8.6C3.7,0,0,3.8,0,8.7v48.9
			c0,4.9,3.7,8.7,8.8,8.7h8.1l3.8,66.4c0,6.6,5.4,12.2,11.9,12.2h63.7c6.6,0,12-5.5,12-12.1l5.2-85.8
			C113.5,40.6,108.8,35.5,102.5,35z M3.7,8.7c0-2.4,2.4-4.9,4.9-4.9H93c2.4,0,4.4,2.5,4.4,4.9V35h-0.8H34.1h-4.2h-2.2
			c-0.9,0-1.7,0.1-2.6,0.3H3.7V8.7z M8.6,62.5c-2.4,0-4.9-2.5-4.9-4.9v-4.5h12.4l0.6,9.4l0,0.1L8.6,62.5z M15.8,47.2l0.1,1.5H3.7
			v-8.9h14.6C16.7,41.9,15.8,44.4,15.8,47.2z M104.2,132.3c0,4.3-3.6,7.5-7.9,7.5H32.7c-4.3,0-7.8-3.4-7.8-7.6l-3.9-66l-0.2-3.6
			L19.9,47c0-4.4,3.5-8.3,7.8-8.3h2.2h67.6c0,0,1.2,0,3.3,0s8.1,2.6,8.5,8.1L104.2,132.3z"/>
	</g>
	<g>
		<defs>
			<rect id="SVGID_3_" width="113.5" height="144.9"/>
		</defs>
		<clipPath id="SVGID_4_">
			<use xlink:href="#SVGID_3_"  style="overflow:visible;"/>
		</clipPath>
		<path class="st3" d="M32.4,83h18.4V69.9H32.4V83z M37,73.6h9.2v5.6H37V73.6z"/>
	</g>
	<g>
		<defs>
			<rect id="SVGID_5_" width="113.5" height="144.9"/>
		</defs>
		<clipPath id="SVGID_6_">
			<use xlink:href="#SVGID_5_"  style="overflow:visible;"/>
		</clipPath>
		<path class="st4" d="M55.5,83h18.4V69.9H55.5V83z M60.1,73.6h9.2v5.6h-9.2C60.1,79.2,60.1,73.6,60.1,73.6z"/>
	</g>
	<g>
		<defs>
			<rect id="SVGID_7_" width="113.5" height="144.9"/>
		</defs>
		<clipPath id="SVGID_8_">
			<use xlink:href="#SVGID_7_"  style="overflow:visible;"/>
		</clipPath>
		<path class="st5" d="M78.5,83H97V69.9H78.5V83z M83.1,73.6h9.2v5.6h-9.2V73.6z"/>
	</g>
	<g>
		<defs>
			<rect id="SVGID_9_" width="113.5" height="144.9"/>
		</defs>
		<clipPath id="SVGID_10_">
			<use xlink:href="#SVGID_9_"  style="overflow:visible;"/>
		</clipPath>
		<path class="st6" d="M32.4,68h18.4V54.9H32.4V68z M37,58.6h9.2v5.6H37V58.6z"/>
	</g>
	<g>
		<defs>
			<rect id="SVGID_11_" width="113.5" height="144.9"/>
		</defs>
		<clipPath id="SVGID_12_">
			<use xlink:href="#SVGID_11_"  style="overflow:visible;"/>
		</clipPath>
		<path class="st7" d="M55.5,68h18.4V54.9H55.5V68z M60.1,58.6h9.2v5.6h-9.2C60.1,64.2,60.1,58.6,60.1,58.6z"/>
	</g>
	<g>
		<defs>
			<rect id="SVGID_13_" width="113.5" height="144.9"/>
		</defs>
		<clipPath id="SVGID_14_">
			<use xlink:href="#SVGID_13_"  style="overflow:visible;"/>
		</clipPath>
		<path class="st8" d="M78.5,68H97V54.9H78.5V68z M83.1,58.6h9.2v5.6h-9.2V58.6z"/>
	</g>
	<g>
		<defs>
			<rect id="SVGID_15_" width="113.5" height="144.9"/>
		</defs>
		<clipPath id="SVGID_16_">
			<use xlink:href="#SVGID_15_"  style="overflow:visible;"/>
		</clipPath>
		<path class="st9" d="M32.4,98h18.4V84.9H32.4V98z M37,88.7h9.2v5.6H37V88.7z"/>
	</g>
	<g>
		<defs>
			<rect id="SVGID_17_" width="113.5" height="144.9"/>
		</defs>
		<clipPath id="SVGID_18_">
			<use xlink:href="#SVGID_17_"  style="overflow:visible;"/>
		</clipPath>
		<path class="st10" d="M55.5,98h18.4V84.9H55.5V98z M60.1,88.7h9.2v5.6h-9.2C60.1,94.3,60.1,88.7,60.1,88.7z"/>
	</g>
	<g>
		<defs>
			<rect id="SVGID_19_" width="113.5" height="144.9"/>
		</defs>
		<clipPath id="SVGID_20_">
			<use xlink:href="#SVGID_19_"  style="overflow:visible;"/>
		</clipPath>
		<path class="st11" d="M78.5,98H97V84.9H78.5V98z M83.1,88.7h9.2v5.6h-9.2V88.7z"/>
	</g>
	<g>
		<defs>
			<rect id="SVGID_21_" width="113.5" height="144.9"/>
		</defs>
		<clipPath id="SVGID_22_">
			<use xlink:href="#SVGID_21_"  style="overflow:visible;"/>
		</clipPath>
		<path class="st12" d="M55.5,113.1h18.4V99.9H55.5V113.1z M60.1,103.7h9.2v5.6h-9.2C60.1,109.3,60.1,103.7,60.1,103.7z"/>
	</g>
	<g>
		<defs>
			<rect id="SVGID_23_" width="113.5" height="144.9"/>
		</defs>
		<clipPath id="SVGID_24_">
			<use xlink:href="#SVGID_23_"  style="overflow:visible;"/>
		</clipPath>
		<path class="st13" d="M55.5,130h18.4v-13.1H55.5V130z M60.1,120.6h9.2v5.6h-9.2C60.1,126.2,60.1,120.6,60.1,120.6z"/>
	</g>
	<g>
		<defs>
			<rect id="SVGID_25_" width="113.5" height="144.9"/>
		</defs>
		<clipPath id="SVGID_26_">
			<use xlink:href="#SVGID_25_"  style="overflow:visible;"/>
		</clipPath>
		<path class="st14" d="M78.5,130H97V99.9H78.5V130z M83.1,103.7h9.2v22.5h-9.2V103.7z"/>
	</g>
	<g>
		<defs>
			<rect id="SVGID_27_" width="113.5" height="144.9"/>
		</defs>
		<clipPath id="SVGID_28_">
			<use xlink:href="#SVGID_27_"  style="overflow:visible;"/>
		</clipPath>
		<path class="st15" d="M32.4,130h18.4V99.9H32.4V130z M37,103.7h9.2v22.5H37V103.7z"/>
	</g>
</g>
</svg>
