<?xml version="1.0" encoding="utf-8"?>
<!-- Generator: Adobe Illustrator 19.2.0, SVG Export Plug-In . SVG Version: 6.00 Build 0)  -->
<svg version="1.1" id="Capa_1" xmlns="http://www.w3.org/2000/svg" xmlns:xlink="http://www.w3.org/1999/xlink" x="0px" y="0px"
	 viewBox="0 0 139.4 139.7" style="enable-background:new 0 0 139.4 139.7;" xml:space="preserve">
<style type="text/css">
	.st0{fill:#E55656;}
	.st1{clip-path:url(#SVGID_2_);fill:#E55656;}
	.st2{clip-path:url(#SVGID_4_);fill:#E55656;}
</style>
<rect x="43.5" y="112.1" class="st0" width="10.7" height="5.9"/>
<rect x="77.3" y="112.1" class="st0" width="13.7" height="5.9"/>
<rect x="113.9" y="112.1" class="st0" width="10.7" height="5.9"/>
<rect x="97.9" y="112.1" class="st0" width="9.2" height="5.9"/>
<rect x="61.3" y="112.1" class="st0" width="9.2" height="5.9"/>
<g>
	<g>
		<defs>
			<rect id="SVGID_1_" width="139.4" height="139.7"/>
		</defs>
		<clipPath id="SVGID_2_">
			<use xlink:href="#SVGID_1_"  style="overflow:visible;"/>
		</clipPath>
		<path class="st1" d="M129.3,62.7h-21.4V10.1c0-5.6-4.5-10.1-10.1-10.1H10.1C4.5,0,0,4.5,0,10.1v56.8C0,72.5,4.5,77,10.1,77h21.4
			v52.6c0,5.6,4.5,10.1,10.1,10.1h88c5.6,0,10.1-4.5,9.8-10.1V72.8C139.4,67.2,134.9,62.7,129.3,62.7 M10.1,5.9L10.1,5.9l88-0.3
			c2.4,0,4.5,2.1,4.5,4.5v7.4h-97v-7.1C5.6,8,7.7,5.9,10.1,5.9 M10.1,71.3c-2.4,0-4.5-2.1-4.5-4.5V23.5h96.9v39.2H41.6h-0.3
			c-5.1,0-9.5,3.6-10.1,8.6H10.1 M133.7,129.6c0,2.4-2.1,4.5-4.5,4.5H41.6c-2.4,0-4.5-2.1-4.5-4.5V74.3v-1.5c0-2.4,2.1-4.5,4.5-4.5
			h63.3h24.4c2.4,0,4.5,2.1,4.5,4.5L133.7,129.6L133.7,129.6z"/>
	</g>
	<g>
		<defs>
			<rect id="SVGID_3_" width="139.4" height="139.7"/>
		</defs>
		<clipPath id="SVGID_4_">
			<use xlink:href="#SVGID_3_"  style="overflow:visible;"/>
		</clipPath>
		<path class="st2" d="M96.9,96.9h28.5V77H96.9V96.9z M102.5,82.6h16.9v8.3h-16.9V82.6z"/>
	</g>
</g>
</svg>
