<?xml version="1.0" encoding="utf-8"?>
<!-- Generator: Adobe Illustrator 19.2.0, SVG Export Plug-In . SVG Version: 6.00 Build 0)  -->
<svg version="1.1" id="Capa_1" xmlns="http://www.w3.org/2000/svg" xmlns:xlink="http://www.w3.org/1999/xlink" x="0px" y="0px"
	 viewBox="0 0 125.6 139.5" style="enable-background:new 0 0 125.6 139.5;" xml:space="preserve">
<style type="text/css">
	.st0{fill:#E55656;}
</style>
<g>
	<g>
		<path class="st0" d="M118.1,18.6h-6.5h-14H93v-5.3C93,6,87,0,79.7,0H13.3C6,0,0,6,0,13.3v112.9c0,7.4,6,13.3,13.3,13.3h66.4
			c7.3,0,13.3-6,13.3-13.3V97.7h4.7h14h6.5c4.1,0,7.4-3.3,7.4-7.4V26C125.6,22,122.2,18.6,118.1,18.6z M88.4,126.2
			c0,4.8-3.9,8.7-8.7,8.7H13.3c-4.8,0-8.7-3.9-8.7-8.7V13.3c0-4.8,3.9-8.7,8.7-8.7h66.4c4.8,0,8.7,3.9,8.7,8.7v5.3v79.1V126.2z
			 M93,93V23.3h4.7V93H93z M102.3,93V23.3h4.7V93H102.3z M120.9,90.2c0,1.5-1.3,2.8-2.8,2.8h-6.5V23.3h6.5c1.5,0,2.8,1.3,2.8,2.8
			V90.2z"/>
		<circle class="st0" cx="116.3" cy="32.6" r="2.3"/>
		<circle class="st0" cx="116.3" cy="44.2" r="2.3"/>
		<path class="st0" d="M11.6,51.2h69.8V20.9H11.6V51.2z M16.3,25.6h60.5v20.9H16.3V25.6z"/>
		<path class="st0" d="M25.6,16.3c1.3,0,2.3-1,2.3-2.3s-1-2.3-2.3-2.3h-14c-1.3,0-2.3,1-2.3,2.3s1,2.3,2.3,2.3H25.6z"/>
		<path class="st0" d="M14,81.4h18.6V65.1H14V81.4z M18.6,69.8h9.3v7h-9.3C18.6,76.8,18.6,69.8,18.6,69.8z"/>
		<path class="st0" d="M37.2,81.4h18.6V65.1H37.2V81.4z M41.9,69.8h9.3v7h-9.3V69.8z"/>
		<path class="st0" d="M60.5,81.4h18.6V65.1H60.5V81.4z M65.1,69.8h9.3v7h-9.3V69.8z"/>
		<path class="st0" d="M14,100h18.6V83.7H14V100z M18.6,88.4h9.3v7h-9.3C18.6,95.4,18.6,88.4,18.6,88.4z"/>
		<path class="st0" d="M37.2,100h18.6V83.7H37.2V100z M41.9,88.4h9.3v7h-9.3V88.4z"/>
		<path class="st0" d="M14,120.9h18.6v-16.3H14V120.9z M18.6,109.3h9.3v7h-9.3C18.6,116.3,18.6,109.3,18.6,109.3z"/>
		<path class="st0" d="M37.2,120.9h18.6v-16.3H37.2V120.9z M41.9,109.3h9.3v7h-9.3V109.3z"/>
		<path class="st0" d="M60.5,120.9h18.6V83.7H60.5V120.9z M65.1,88.4h9.3v27.9h-9.3V88.4z"/>
	</g>
</g>
</svg>
