<?xml version="1.0" encoding="utf-8"?>
<!-- Generator: Adobe Illustrator 18.1.1, SVG Export Plug-In . SVG Version: 6.00 Build 0)  -->
<!DOCTYPE svg PUBLIC "-//W3C//DTD SVG 1.1//EN" "http://www.w3.org/Graphics/SVG/1.1/DTD/svg11.dtd">
<svg version="1.1" id="Capa_1" xmlns="http://www.w3.org/2000/svg" xmlns:xlink="http://www.w3.org/1999/xlink" x="0px" y="0px"
	 viewBox="0 0 46.8 48.1" enable-background="new 0 0 46.8 48.1" xml:space="preserve">
<g>
	<g>
		<path fill="#3F3F3F" d="M1.4,41.2c-0.4,0-0.8-0.2-1.1-0.5c-0.2-0.3-0.3-0.8-0.2-1.2l7.6-25.2c0.2-0.6,0.7-0.9,1.3-0.9h29
			c0.6,0,1.1,0.4,1.3,1l7.4,25.2c0.1,0.4,0,0.8-0.2,1.2s-0.6,0.5-1.1,0.5L1.4,41.2z M9.3,15.1L2,39.4l42.8,0l-7.2-24.3H9.3z"/>
	</g>
	<g>
		<path fill="#3F3F3F" d="M45.4,48.1H1.4c-0.8,0-1.4-0.6-1.4-1.4v-5.9c0-0.8,0.6-1.4,1.4-1.4h43.9c0.8,0,1.4,0.6,1.4,1.4v5.9
			C46.8,47.5,46.2,48.1,45.4,48.1z M1.8,46.3H45v-5.2H1.8V46.3z"/>
	</g>
	<g>
		<path fill="#3F3F3F" d="M34.3,23.1H12.4v-5.9h21.9V23.1z M14.2,21.3h18.3v-2.3H14.2V21.3z"/>
	</g>
	<g>
		<path fill="#3F3F3F" d="M26.5,10.4H8.2V0h18.3V10.4z M10,8.6h14.7V1.8H10V8.6z"/>
	</g>
	<g>
		<rect x="16.4" y="10.1" fill="#3F3F3F" width="1.8" height="3.8"/>
	</g>
	<rect x="13.9" y="25.7" fill="#3F3F3F" width="2.8" height="2"/>
	<rect x="22" y="25.9" fill="#3F3F3F" width="2.8" height="2"/>
	<rect x="30.1" y="25.9" fill="#3F3F3F" width="2.8" height="2"/>
	<rect x="13.9" y="29.7" fill="#3F3F3F" width="2.8" height="2"/>
	<rect x="22" y="29.9" fill="#3F3F3F" width="2.8" height="2"/>
	<rect x="30.1" y="29.9" fill="#3F3F3F" width="2.8" height="2"/>
	<rect x="14" y="33.7" fill="#3F3F3F" width="2.8" height="2"/>
	<rect x="22.1" y="33.9" fill="#3F3F3F" width="2.8" height="2"/>
	<rect x="30.1" y="33.9" fill="#3F3F3F" width="2.8" height="2"/>
</g>
</svg>
