<?xml version="1.0" encoding="utf-8"?>
<!-- Generator: Adobe Illustrator 18.1.1, SVG Export Plug-In . SVG Version: 6.00 Build 0)  -->
<!DOCTYPE svg PUBLIC "-//W3C//DTD SVG 1.1//EN" "http://www.w3.org/Graphics/SVG/1.1/DTD/svg11.dtd">
<svg version="1.1" id="Capa_1" xmlns="http://www.w3.org/2000/svg" xmlns:xlink="http://www.w3.org/1999/xlink" x="0px" y="0px"
	 viewBox="0 0 9.2 8.3" enable-background="new 0 0 9.2 8.3" xml:space="preserve">
<g>
	<g>
		<path fill="#3F3F3F" d="M5.3,1.2c0,0-0.1,0.1-0.1,0.1L4,1.3c-0.1,0-0.1,0-0.1-0.1c0,0-0.1-0.1-0.1-0.1c0-0.1,0.1-0.2,0.2-0.2
			l1.1,0c0.1,0,0.1,0,0.1,0.1S5.4,1,5.4,1.1C5.4,1.1,5.3,1.2,5.3,1.2z"/>
	</g>
	<g>
		<path fill="#3F3F3F" d="M7,2c0,0-0.1,0.1-0.1,0.1l-4.6,0c-0.1,0-0.1,0-0.1-0.1c0,0-0.1-0.1-0.1-0.1c0-0.1,0.1-0.2,0.2-0.2l4.6,0
			c0.1,0,0.1,0,0.1,0.1c0,0,0.1,0.1,0.1,0.1C7.1,2,7,2,7,2z"/>
	</g>
	<g>
		<path fill="#3F3F3F" d="M7,6.6c0,0-0.1,0.1-0.1,0.1l-4.6,0c-0.1,0-0.1,0-0.1-0.1c0,0-0.1-0.1-0.1-0.1c0-0.1,0.1-0.2,0.2-0.2l4.6,0
			c0.1,0,0.1,0,0.1,0.1c0,0,0.1,0.1,0.1,0.1C7.1,6.5,7,6.6,7,6.6z"/>
	</g>
	<g>
		<path fill="#3F3F3F" d="M6.8,8C6.8,8.1,6.8,8.1,6.8,8C6.6,8.3,6.3,8.4,6,8.3H3.2C2.9,8.3,2.6,8.2,2.4,8C2.2,7.8,2.1,7.6,2.1,7.3
			l0-6.2c0-0.3,0.1-0.6,0.3-0.8C2.6,0.1,2.9,0,3.2,0L6,0c0.3,0,0.6,0.1,0.8,0.3C7,0.5,7.1,0.8,7.1,1.1l0,6.2C7.1,7.6,7,7.8,6.8,8z
			 M2.7,0.6C2.6,0.7,2.5,0.9,2.5,1.1l0,6.2c0,0.2,0.1,0.3,0.2,0.5C2.8,7.9,3,7.9,3.2,7.9l2.8,0c0.2,0,0.3-0.1,0.5-0.2c0,0,0,0,0,0
			c0.1-0.1,0.2-0.3,0.2-0.5l0-6.2c0-0.2-0.1-0.3-0.2-0.5C6.4,0.5,6.2,0.4,6,0.4l-2.8,0C3,0.4,2.8,0.5,2.7,0.6
			C2.7,0.6,2.7,0.6,2.7,0.6z"/>
	</g>
	<g>
		<path fill="#3F3F3F" d="M5,7.6c-0.1,0.1-0.4,0.1-0.5,0C4.3,7.4,4.3,7.2,4.4,7C4.6,6.9,4.8,6.9,5,7C5.1,7.2,5.1,7.4,5,7.6z
			 M4.6,7.3C4.6,7.3,4.6,7.3,4.6,7.3C4.7,7.4,4.7,7.4,4.6,7.3C4.8,7.3,4.8,7.3,4.6,7.3C4.7,7.2,4.7,7.2,4.6,7.3z"/>
	</g>
	<g>
		<g>
			<path fill="#3F3F3F" d="M1,5.9C0.9,6,0.8,6,0.7,5.9C0.3,5.5,0,4.8,0,4.2c0-0.7,0.3-1.3,0.7-1.7c0.1-0.1,0.2-0.1,0.3,0
				s0.1,0.2,0,0.3C0.6,3.1,0.4,3.6,0.4,4.2c0,0.6,0.2,1.1,0.6,1.5C1.1,5.7,1.1,5.8,1,5.9z"/>
		</g>
		<g>
			<path fill="#3F3F3F" d="M1.6,5.3c-0.1,0.1-0.2,0.1-0.3,0C1,5,0.9,4.6,0.9,4.2C0.9,3.7,1,3.3,1.3,3C1.4,3,1.5,3,1.6,3
				c0.1,0.1,0.1,0.2,0,0.3C1.4,3.5,1.3,3.9,1.3,4.2c0,0.3,0.1,0.6,0.4,0.9C1.7,5.1,1.7,5.3,1.6,5.3z"/>
		</g>
	</g>
	<g>
		<g>
			<path fill="#3F3F3F" d="M8.5,5.9C8.4,6,8.3,6,8.2,5.9s-0.1-0.2,0-0.3c0.4-0.4,0.6-0.9,0.6-1.5c0-0.6-0.2-1.1-0.6-1.5
				c-0.1-0.1-0.1-0.2,0-0.3s0.2-0.1,0.3,0c0.5,0.5,0.7,1.1,0.7,1.7C9.2,4.9,8.9,5.5,8.5,5.9z"/>
		</g>
		<g>
			<path fill="#3F3F3F" d="M7.9,5.3c-0.1,0.1-0.2,0.1-0.3,0c-0.1-0.1-0.1-0.2,0-0.3c0.2-0.2,0.4-0.5,0.4-0.9c0-0.3-0.1-0.6-0.4-0.9
				C7.5,3.2,7.5,3.1,7.6,3S7.8,3,7.9,3c0.3,0.3,0.5,0.7,0.5,1.1C8.3,4.6,8.2,5,7.9,5.3z"/>
		</g>
	</g>
</g>
</svg>
