<?xml version="1.0" encoding="utf-8"?>
<!-- Generator: Adobe Illustrator 19.2.0, SVG Export Plug-In . SVG Version: 6.00 Build 0)  -->
<svg version="1.1" id="Capa_1" xmlns="http://www.w3.org/2000/svg" xmlns:xlink="http://www.w3.org/1999/xlink" x="0px" y="0px"
	 viewBox="0 0 90 90" style="enable-background:new 0 0 90 90;" xml:space="preserve">
<style type="text/css">
	.st0{fill:#B30D16;}
	.st1{fill:#FFFFFF;}
</style>
<circle class="st0" cx="45" cy="45" r="45"/>
<g>
	<path class="st1" d="M71.8,56.4c-1-5.9-5.8-8.1-7.7-8.6c0,0-5.4-1.5-8.1-1.8c-1.8-0.2-3.1-1.8-3.1-3.6v-1.6
		c3.8-4.2,6.2-11.1,6.2-15.6l0,0c0-7.3-5.9-13.2-13.2-13.2s-13.2,5.9-13.2,13.2l0,0l0,0c0,4.5,2.3,11.2,6.1,15.5v1.7
		c0,1.8-1.3,3.4-3,3.6c-3.3,0.4-8.1,1.8-8.1,1.8c-4,1.2-6.8,4.6-7.7,8.7c-1.4,7,1.2,14.7,1.2,14.7s10.9,3.5,24.7,3.5
		c14.1,0,24.8-3.5,24.8-3.5S73.1,63.8,71.8,56.4z M55,18.6c-8.3,3.3-12.4-4.1-12.4-4.1c1-0.3,2.2-0.5,3.3-0.5
		C49.7,14,53,15.8,55,18.6z M40.6,15.3l0.7,1.1c0,0-1.8,3.6-5.9,4.8C36.5,18.6,38.3,16.5,40.6,15.3z M35,23.3c5.5-1,7.8-5.4,7.8-5.4
		C45,20.2,50,23.1,56,20.3c0.7,1.4,1,3,1,4.8c0,6.5-5.2,17.2-11.1,17.2S34.8,31.6,34.8,25.1C34.8,24.5,34.9,23.9,35,23.3z
		 M22.8,69.5c0,0-2.1-7.3-0.8-12.9c0.8-3.3,2.9-6.1,6.3-7c0,0,4.1-1.2,6.4-1.5l7.8,24.5C35.9,72.3,29.3,71.2,22.8,69.5z M44.7,72.6
		l-8-24.9c2.3-0.6,4.1-2.8,4.1-5.3c1.5,1.1,3.2,1.9,5.1,1.9s3.4-0.7,5-1.8c0.1,2.5,1.8,4.7,4.2,5.3l-8,24.9
		C46.4,72.6,45.5,72.6,44.7,72.6z M69,69.5c-6.4,1.8-13,2.8-19.6,3.1l7.8-24.4c2.4,0.3,6.4,1.5,6.4,1.5c3.3,0.7,5.9,4.2,6.3,7
		C70.9,63.9,69,69.5,69,69.5z"/>
	<path class="st1" d="M48.9,49.4v-2h-6.1v2h1.5l-1.9,8L46,68.7l3.4-11.3l-1.9-8H48.9z M45.9,61.8l-1.4-4.6l1.4-5.8l1.4,5.8
		L45.9,61.8z"/>
</g>
</svg>
