<?xml version="1.0" encoding="utf-8"?>
<!-- Generator: Adobe Illustrator 19.2.0, SVG Export Plug-In . SVG Version: 6.00 Build 0)  -->
<svg version="1.1" id="Capa_1" xmlns="http://www.w3.org/2000/svg" xmlns:xlink="http://www.w3.org/1999/xlink" x="0px" y="0px"
	 viewBox="0 0 90 90" style="enable-background:new 0 0 90 90;" xml:space="preserve">
<style type="text/css">
	.st0{fill:#B30D16;}
	.st1{fill:#FFFFFF;}
</style>
<circle class="st0" cx="45" cy="45" r="45"/>
<g>
	<g>
		<path class="st1" d="M50.5,54.4h-8.4c-0.6,0-1,0.5-1,1c0,0.6,0.5,1,1,1h8.4c0.6,0,1-0.5,1-1C51.6,54.9,51.1,54.4,50.5,54.4z"/>
		<path class="st1" d="M54.7,50.2H38c-0.6,0-1,0.5-1,1c0,0.6,0.5,1,1,1h16.7c0.6,0,1-0.5,1-1C55.8,50.7,55.3,50.2,54.7,50.2z"/>
		<path class="st1" d="M54.7,45H38c-0.6,0-1,0.5-1,1c0,0.6,0.5,1,1,1h16.7c0.6,0,1-0.5,1-1C55.8,45.5,55.3,45,54.7,45z"/>
		<path class="st1" d="M63.1,20.9H29.6c-0.5,0-0.9,0.4-1,0.9h0l0,0.1c0,0,0,0,0,0l-6.3,46h0c0,0,0,0.1,0,0.1c0,0.6,0.5,1,1,1
			c0.5,0,1-0.4,1-0.9h0l0.7-5.4h3.5v0.8l0,0v6.5c0,0.6,0.5,1,1,1c0.6,0,1-0.5,1-1v-5.2H62v5.2c0,0.6,0.5,1,1,1c0.6,0,1-0.5,1-1v-6.3
			v-0.2V22C64.1,21.4,63.7,20.9,63.1,20.9z M25.4,60.7l3.2-23.2v23.2H25.4z M30.6,23H62v39.8H30.6V23z"/>
	</g>
	<g>
		<path class="st1" d="M46.3,40.8c-3.7,0-6.7-3-6.7-6.7c0-3.7,3-6.7,6.7-6.7c3.7,0,6.7,3,6.7,6.7C53.1,37.7,50,40.8,46.3,40.8z
			 M46.3,29.1c-2.7,0-4.9,2.2-4.9,4.9c0,2.7,2.2,4.9,4.9,4.9c2.7,0,4.9-2.2,4.9-4.9C51.2,31.3,49,29.1,46.3,29.1z"/>
	</g>
</g>
</svg>
