<?xml version="1.0" encoding="utf-8"?>
<!-- Generator: Adobe Illustrator 19.2.0, SVG Export Plug-In . SVG Version: 6.00 Build 0)  -->
<svg version="1.1" id="Capa_1" xmlns="http://www.w3.org/2000/svg" xmlns:xlink="http://www.w3.org/1999/xlink" x="0px" y="0px"
	 viewBox="0 0 90 90" style="enable-background:new 0 0 90 90;" xml:space="preserve">
<style type="text/css">
	.st0{fill:#B30D16;}
	.st1{fill:#FFFFFF;}
</style>
<circle class="st0" cx="45" cy="45" r="45"/>
<g>
	<path class="st1" d="M72.7,55.2c-0.5-1.2-1.6-2.4-3.3-2.8c-0.1-1.1-0.6-2.2-1.5-3c-1.4-1.2-3.4-1.5-5.5-0.9l-0.3,0.1
		c-0.3-0.9-0.9-1.7-1.7-2.2c-1.4-1-3.2-1.2-5.2-0.6l-11,3.8c-2.8-1.3-5.5-2.5-8.8-2.5c-4.3,0-9.7,2.6-17.1,6.9
		c-0.5,0.3-0.6,0.8-0.4,1.3c0.3,0.5,0.8,0.6,1.3,0.4c6.9-4,12.3-6.7,16.2-6.7c2.9,0,5.3,1.1,8.1,2.4c2.2,1,4.7,2.2,7.9,3
		c2,0.5,2.8,2,2.5,3.3c-0.2,1.2-1.4,2.4-4.2,2c-2.2-0.3-3.8-0.4-5.2-0.4c-2.3-0.1-4.1-0.1-7.3-1.1c-0.5-0.2-1,0.1-1.2,0.6
		c-0.2,0.5,0.1,1,0.6,1.2c3.5,1.1,5.5,1.1,7.8,1.2c1.4,0.1,3,0.1,5.1,0.4c0.4,0.1,0.8,0.1,1.2,0.1c3,0,4.7-1.7,5.1-3.6l10.7-3.7
		c2.4-0.7,3.9,0.2,4.4,1.5c0.4,1.1,0.1,2.8-2.2,3.9l-3.4,1.6c-12.2,6-17.7,8.7-20.8,8.7c-2.4,0-6.1-2.1-9.1-3.7
		c-3.1-1.7-4.9-2.7-6.2-2.5c-1.8,0.3-6.3,2.2-6.8,2.5c-0.5,0.2-0.7,0.8-0.5,1.3c0.2,0.5,0.8,0.7,1.3,0.5c1.3-0.6,4.9-2.1,6.2-2.3
		c0.7-0.1,3.2,1.3,5,2.3c3.3,1.9,7.1,4,10.1,4c3.5,0,8.9-2.6,21.7-8.9l3.4-1.6C72.8,59.9,73.5,57.2,72.7,55.2z M51.4,52.3
		c-1.7-0.5-3.2-1-4.6-1.6l9-3.1c1.4-0.4,2.6-0.3,3.5,0.3c0.5,0.3,0.8,0.8,0.9,1.3L51.4,52.3z M65.9,52.5L55.7,56
		c-0.3-1-0.8-1.9-1.7-2.6l9-3.1c1.5-0.4,2.8-0.3,3.7,0.5c0.4,0.4,0.7,0.9,0.8,1.4C67,52.3,66.4,52.4,65.9,52.5z M45.4,44.2
		c8.3,0,15.1-6.8,15.1-15.1c0-8.3-6.8-15.1-15.1-15.1s-15.1,6.8-15.1,15.1C30.3,37.4,37.1,44.2,45.4,44.2z M45.4,16
		c7.3,0,13.2,5.9,13.2,13.2s-5.9,13.2-13.2,13.2s-13.2-5.9-13.2-13.2C32.2,21.9,38.1,16,45.4,16z"/>
	<path class="st1" d="M48.2,29c-0.6-0.3-1.5-0.5-2.3-0.7h-0.1c-0.9-0.2-1.6-0.4-2.1-0.8c-0.2-0.1-0.4-0.3-0.4-0.4s-0.1-0.3-0.1-0.4
		c0-0.4,0.2-0.7,0.6-1.1c0.4-0.3,1.1-0.6,1.8-0.6c1,0,1.8,0.5,2.7,1.1c0.4,0.3,0.9,0.1,1.2-0.3c0.3-0.4,0.1-0.9-0.3-1.2
		c-0.7-0.4-1.6-1.1-2.8-1.3v-2.5c0-0.5-0.4-0.9-0.9-0.9c-0.5,0-0.9,0.4-0.9,0.9v2.5c-0.6,0.1-1.3,0.4-1.8,0.8
		c-0.8,0.6-1.3,1.5-1.3,2.4c0,0.5,0.1,0.9,0.4,1.4c0.4,0.6,0.9,1,1.5,1.3c0.6,0.3,1.4,0.5,2.2,0.6h0.1c0.9,0.2,1.8,0.4,2.3,0.8
		c0.3,0.2,0.4,0.3,0.5,0.5c0.1,0.2,0.1,0.3,0.1,0.5c0,0.4-0.2,0.8-0.7,1.2c-0.5,0.4-1.3,0.6-2.1,0.6c-1.2,0-2.5-0.7-3.2-1.3
		c-0.4-0.3-0.9-0.3-1.2,0.1c-0.3,0.4-0.3,0.9,0.1,1.2c0.8,0.6,1.8,1.3,3.1,1.5v2.3c0,0.5,0.4,0.9,0.9,0.9c0.5,0,0.9-0.4,0.9-0.9
		v-2.3c0.9-0.1,1.7-0.4,2.3-0.9c0.8-0.6,1.5-1.5,1.5-2.6c0-0.5-0.1-1-0.4-1.4C49.5,29.7,48.9,29.3,48.2,29z"/>
</g>
</svg>
