<?xml version="1.0" encoding="utf-8"?>
<!-- Generator: Adobe Illustrator 19.2.0, SVG Export Plug-In . SVG Version: 6.00 Build 0)  -->
<svg version="1.1" id="Capa_1" xmlns="http://www.w3.org/2000/svg" xmlns:xlink="http://www.w3.org/1999/xlink" x="0px" y="0px"
	 viewBox="0 0 90 90" style="enable-background:new 0 0 90 90;" xml:space="preserve">
<style type="text/css">
	.st0{fill:#B30D16;}
	.st1{fill:#FFFFFF;}
</style>
<circle class="st0" cx="45" cy="45" r="45"/>
<g>
	<path class="st1" d="M65.5,57.2c-0.3,0-0.6-0.1-0.8-0.3c-1.2-1.3-2.6-2.7-3-3c-0.4-0.2-0.7-0.6-0.6-1.1c0.1-0.6,0.6-0.9,1.2-0.9
		c0.3,0.1,0.7,0.1,3.3,2.9l5.8-4.6c0.5-0.4,1.1-0.3,1.4,0.2c0.4,0.5,0.3,1.1-0.2,1.4L66.2,57C66,57.1,65.8,57.2,65.5,57.2z"/>
	<path class="st1" d="M67.2,62.4c-5.4,0-9.7-4.3-9.7-9.5c0-5.2,4.4-9.5,9.7-9.5s9.7,4.3,9.7,9.5C76.9,58.1,72.5,62.4,67.2,62.4z
		 M67.2,45.4c-4.2,0-7.6,3.3-7.6,7.4c0,4.1,3.4,7.4,7.6,7.4s7.6-3.3,7.6-7.4C74.8,48.8,71.4,45.4,67.2,45.4z"/>
	<path class="st1" d="M66.6,67.6H28.3c-0.6,0-1-0.5-1-1V19c0-0.6,0.5-1,1-1h19.1c0.2,0,0.5,0.1,0.7,0.2l19.2,16.2
		c0.2,0.2,0.4,0.5,0.4,0.8v9c0,0.6-0.5,1-1,1c-0.6,0-1-0.5-1-1v-8.5L47.1,20.1H29.4v45.4h36.2v-4c0-0.6,0.5-1,1-1c0.6,0,1,0.5,1,1v5
		C67.6,67.1,67.2,67.6,66.6,67.6z"/>
	<path class="st1" d="M28.6,63.9h-4.9V21.7h4.4c0-0.6,0-1.3,0-1.9h-5.3c-0.5,0-1,0.4-1,1v44.2c0,0.5,0.4,1,1,1h6
		C28.7,65.2,28.7,64.6,28.6,63.9z"/>
	<path class="st1" d="M66.6,36.2H47.5c-0.6,0-1-0.5-1-1V20.1c0-0.6,0.5-1,1-1s1,0.5,1,1v14.1h18.1c0.6,0,1,0.5,1,1
		C67.6,35.8,67.2,36.2,66.6,36.2z"/>
	<path class="st1" d="M53.2,44.2H36.7c-0.6,0-1-0.5-1-1c0-0.6,0.5-1,1-1h16.5c0.6,0,1,0.5,1,1C54.2,43.7,53.8,44.2,53.2,44.2z"/>
	<path class="st1" d="M53.2,51.5H36.7c-0.6,0-1-0.5-1-1s0.5-1,1-1h16.5c0.6,0,1,0.5,1,1S53.8,51.5,53.2,51.5z"/>
	<path class="st1" d="M53.2,58.9H36.7c-0.6,0-1-0.5-1-1s0.5-1,1-1h16.5c0.6,0,1,0.5,1,1S53.8,58.9,53.2,58.9z"/>
</g>
</svg>
