<?xml version="1.0" encoding="utf-8"?>
<!-- Generator: Adobe Illustrator 18.1.1, SVG Export Plug-In . SVG Version: 6.00 Build 0)  -->
<!DOCTYPE svg PUBLIC "-//W3C//DTD SVG 1.1//EN" "http://www.w3.org/Graphics/SVG/1.1/DTD/svg11.dtd">
<svg version="1.1" id="Capa_1" xmlns="http://www.w3.org/2000/svg" xmlns:xlink="http://www.w3.org/1999/xlink" x="0px" y="0px"
	 viewBox="0 0 61.6 84.1" enable-background="new 0 0 61.6 84.1" xml:space="preserve">
<g>
	<g>
		<path fill="#3F3F3F" d="M31,84.1c-2.1,0-4-1.1-5-2.8l-10-16.6c-0.7-1.2-1-2.6-0.6-3.9c0.3-1.4,1.2-2.5,2.4-3.3
			c1-0.5,1.9-0.7,2.7-0.7c1.8,0,3.6,1,4.5,2.6l2.3,3.9L27,40.6c0-2.9,2.4-5.3,5.3-5.3c2.9,0,5.3,2.4,5.3,5.3v11
			c0.6-0.6,1.6-0.9,2.6-0.9h0.1c1.8,0,7.5,1.4,17.2,4.4c2.4,0.7,4,2.9,4.1,5.3v18.4c0,2.9-2.4,5.3-5.3,5.3H31z M20.5,59.5
			c-0.6,0-1.1,0.1-1.4,0.4c-1.3,0.8-1.7,2.3-1,3.7l10,16.6c0.6,1,1.6,1.6,2.8,1.6h25.3c1.5,0,2.7-1.2,2.7-2.7l0.3-0.2l-0.1-18.2
			c0-1.4-0.9-2.6-2.2-2.9c-7.3-2.1-14.9-4.3-16.6-4.3c-1.5,0-2.6,1.2-2.6,2.7c0,0.7-0.6,1.3-1.3,1.3c-0.7,0-1.3-0.6-1.3-1.3V40.8
			c0-1.5-1.2-2.7-2.7-2.7c-1.5,0-2.7,1.2-2.7,2.7v25c0,0.8-0.6,1.5-1.3,1.8c-0.1,0-0.3,0.1-0.4,0.1c-0.6,0-1.3-0.4-1.7-0.9l-3.5-5.8
			C22.3,60,21.4,59.5,20.5,59.5z"/>
		<path fill="#3F3F3F" d="M24.6,48.9c-0.1,0-0.1,0-0.2,0c0,0,0,0,0,0c-6.5,0-12.6-2.5-17.3-7.2C2.5,37.1,0,31,0,24.5
			C0,11,11,0,24.6,0C38,0,49,11,49.1,24.6c0,6.9-2.9,13.5-8.1,18.1c-0.3,0.2-0.6,0.3-0.9,0.3c-0.4,0-0.7-0.2-0.9-0.4
			c-0.2-0.3-0.4-0.7-0.3-1c0-0.3,0.2-0.6,0.4-0.8c4.5-4,7.1-9.9,7.1-16.2c0-12.1-9.8-21.9-21.9-21.9c-12.1,0-21.9,9.8-21.9,21.9
			c0,12.1,9.8,21.9,21.9,21.9c0.7,0,1.3,0.6,1.3,1.3c0,0.3-0.1,0.6-0.3,0.8C25.3,48.8,25,48.9,24.6,48.9z"/>
	</g>
	<path fill="#3F3F3F" d="M31.3,25.2c-0.5-0.5-1.2-0.9-2-1.2c-0.8-0.4-1.8-0.7-3-1c-1.2-0.3-2.1-0.6-2.9-0.8c-0.8-0.2-1.5-0.5-2-0.8
		c-0.5-0.3-0.9-0.6-1.1-1c-0.2-0.4-0.4-0.8-0.4-1.3c0-0.5,0.1-1,0.4-1.4c0.3-0.4,0.6-0.7,1-1c0.4-0.3,0.9-0.5,1.4-0.6
		c0.5-0.1,1.1-0.2,1.6-0.2c0.8,0,1.4,0.1,2,0.3c0.6,0.2,1.1,0.5,1.5,0.8c0.4,0.3,0.7,0.6,1,0.9c0.2,0.3,0.4,0.6,0.5,0.8
		c0.1,0.3,0.3,0.5,0.4,0.5c0.1,0.1,0.3,0.1,0.5,0.1h1.3c0.2,0,0.3-0.1,0.5-0.2c0.1-0.1,0.2-0.3,0.2-0.5c0-0.5-0.2-1-0.5-1.5
		c-0.3-0.6-0.7-1.1-1.2-1.7c-0.5-0.5-1.2-1-2-1.4c-0.8-0.4-1.7-0.7-2.7-0.8V11c0-0.2-0.1-0.4-0.2-0.6c-0.2-0.2-0.4-0.2-0.6-0.2h-1.3
		c-0.2,0-0.4,0.1-0.6,0.2c-0.2,0.2-0.2,0.4-0.2,0.6v2c-1,0.1-1.8,0.4-2.6,0.7c-0.7,0.4-1.3,0.8-1.8,1.4c-0.5,0.5-0.8,1.1-1.1,1.8
		c-0.2,0.7-0.4,1.3-0.4,2c0,0.7,0.1,1.3,0.3,1.9c0.2,0.6,0.5,1.1,1,1.6c0.4,0.5,1,0.9,1.8,1.3c0.7,0.4,1.6,0.7,2.6,1
		c1.1,0.3,2.1,0.6,3,0.8c0.9,0.3,1.6,0.5,2.3,0.9c0.6,0.3,1.1,0.7,1.4,1c0.3,0.4,0.5,0.8,0.5,1.4c0,0.5-0.1,1-0.4,1.4
		c-0.3,0.4-0.7,0.8-1.2,1.1c-0.5,0.3-1.1,0.5-1.7,0.7c-0.6,0.2-1.3,0.2-2,0.2c-0.8,0-1.6-0.1-2.2-0.3c-0.6-0.2-1.1-0.5-1.6-0.8
		c-0.4-0.3-0.8-0.6-1-1s-0.4-0.7-0.6-0.9c-0.1-0.3-0.3-0.5-0.4-0.6c-0.2-0.1-0.3-0.1-0.5-0.1H17c-0.2,0-0.3,0.1-0.5,0.2
		c-0.1,0.1-0.2,0.3-0.2,0.5c0,0.6,0.2,1.2,0.5,1.8c0.3,0.6,0.8,1.2,1.4,1.7c0.6,0.5,1.3,1,2.1,1.3c0.8,0.4,1.7,0.7,2.7,0.8V37
		c0,0.2,0.1,0.4,0.2,0.6c0.2,0.2,0.4,0.2,0.6,0.2H25c0.2,0,0.4-0.1,0.6-0.2c0.2-0.2,0.2-0.4,0.2-0.6v-2c1-0.1,2-0.3,2.9-0.7
		c0.9-0.3,1.6-0.8,2.2-1.3c0.6-0.5,1.1-1.2,1.4-1.9c0.3-0.7,0.5-1.5,0.5-2.3c0-0.8-0.1-1.4-0.4-2S31.8,25.6,31.3,25.2z"/>
</g>
</svg>
