<?xml version="1.0" encoding="utf-8"?>
<!-- Generator: Adobe Illustrator 18.1.1, SVG Export Plug-In . SVG Version: 6.00 Build 0)  -->
<!DOCTYPE svg PUBLIC "-//W3C//DTD SVG 1.1//EN" "http://www.w3.org/Graphics/SVG/1.1/DTD/svg11.dtd">
<svg version="1.1" id="Capa_1" xmlns="http://www.w3.org/2000/svg" xmlns:xlink="http://www.w3.org/1999/xlink" x="0px" y="0px"
	 viewBox="0 0 277.5 124.8" enable-background="new 0 0 277.5 124.8" xml:space="preserve">
<path fill="#FFFFFF" d="M104.3,58.7c3.6,0,6.5-2.9,6.5-6.4c0-3.6-2.9-6.4-6.5-6.4c-3.6,0-6.4,2.9-6.4,6.4
	C97.8,55.8,100.7,58.7,104.3,58.7 M104.3,48.7c2,0,3.6,1.6,3.6,3.5s-1.6,3.5-3.6,3.5c-2,0-3.5-1.6-3.5-3.5S102.3,48.7,104.3,48.7"/>
<path fill="#FFFFFF" d="M222,76.2h-28c-0.8,0-1.5,0.7-1.5,1.5v31.3c0,0.8,0.7,1.5,1.5,1.5h28c0.8,0,1.5-0.7,1.5-1.5V77.7
	C223.5,76.9,222.8,76.2,222,76.2 M220.5,107.6h-25V79.2h25L220.5,107.6L220.5,107.6z"/>
<path fill="#FFFFFF" d="M186,76.2h-28c-0.8,0-1.5,0.7-1.5,1.5v44.5c0,0,0.1,0.1,0.1,0.1c0.1,0,0.2,0,0.4,0h2.5v-43h25v42.7
	c1,0,2,0,3,0.1V77.7C187.5,76.9,186.8,76.2,186,76.2"/>
<path fill="#FFFFFF" d="M202.3,92.1c0.4,0,0.8-0.1,1.1-0.4l5.7-5.7c0.6-0.6,0.6-1.5,0-2.1s-1.5-0.6-2.1,0l-5.7,5.7
	c-0.6,0.6-0.6,1.5,0,2.1C201.5,91.9,201.9,92.1,202.3,92.1"/>
<path fill="#FFFFFF" d="M208.9,102.9c-0.6,0.6-0.6,1.5,0,2.1c0.3,0.3,0.7,0.4,1.1,0.4s0.8-0.1,1.1-0.4l5.7-5.7
	c0.6-0.6,0.6-1.5,0-2.1s-1.5-0.6-2.1,0L208.9,102.9z"/>
<path fill="#FFFFFF" d="M201,104.5c0.4,0,0.8-0.1,1.1-0.4l13-13c0.6-0.6,0.6-1.5,0-2.1s-1.5-0.6-2.1,0l-13,13
	c-0.6,0.6-0.6,1.5,0,2.1C200.2,104.4,200.6,104.5,201,104.5"/>
<path fill="#FFFFFF" d="M178.7,96.5c1.3,0,2.3,1,2.3,2.3s-1,2.3-2.3,2.3c-1.3,0-2.3-1-2.3-2.3S177.4,96.5,178.7,96.5"/>
<path fill="#FFFFFF" d="M257.3,23.8v0.3c0,2.9-2.4,5.3-5.3,5.3h-0.4v2.7c0,0.3-0.2,0.5-0.5,0.5h-1.9c-0.3,0-0.5-0.2-0.5-0.5v-2.7
	h-3.5c-0.3,0-0.5-0.2-0.5-0.5v-1.9c0-0.3,0.2-0.5,0.5-0.5h6.3h0.4c1.4,0,2.5-1.1,2.5-2.5v-0.3c0-1.4-1.1-2.5-2.5-2.5h-3.3
	c-2.8,0-5.2-2-5.5-4.8c-0.3-3.2,2.2-5.8,5.3-5.8h0.4V8c0-0.3,0.2-0.5,0.5-0.5h1.9c0.3,0,0.5,0.2,0.5,0.5v2.7h3.6
	c0.2,0,0.4,0.2,0.4,0.4v1.9c0,0.3-0.2,0.5-0.5,0.5h-6.5c-1.3,0-2.5,0.9-2.6,2.3c-0.2,1.5,1,2.8,2.5,2.8h3.5
	C254.9,18.5,257.3,20.9,257.3,23.8"/>
<path fill="#FFFFFF" d="M69.5,94.4H55.6v-9.1h-2.9v9.1v0.9v21h2.7c-0.9,0.6-1.5,1.5-1.5,2.7c0,1.7,1.4,3.2,3.2,3.2
	c1.7,0,3.2-1.4,3.2-3.2s-1.4-3.2-3.2-3.2c-0.6,0-1.1,0.2-1.5,0.4v-19h11.1v18.9c-0.5-0.2-1-0.4-1.5-0.4c-1.7,0-3.2,1.4-3.2,3.2
	s1.4,3.2,3.2,3.2c1.7,0,3.2-1.4,3.2-3.2c0-1.1-0.6-2.1-1.5-2.7h2.7V94.4z M57.1,118.7c0.2,0,0.3,0.1,0.3,0.3s-0.1,0.3-0.3,0.3
	c-0.2,0-0.3-0.1-0.3-0.3C56.8,118.8,56.9,118.7,57.1,118.7 M65.1,119.3c-0.2,0-0.3-0.1-0.3-0.3s0.1-0.3,0.3-0.3
	c0.2,0,0.3,0.1,0.3,0.3S65.3,119.3,65.1,119.3"/>
<path fill="#FFFFFF" d="M36.4,71.7c4.9,0,8.8-3.9,8.8-8.8c0-1.5-0.4-2.8-1-4.1c0.6-0.5,0.9-1,1-1.4c0.4-1.9-1.9-4.3-4.8-5.3l0-0.2
	c0.2-0.8-0.4-1.5-1.1-1.7c-0.8-0.1-1.5,0.4-1.7,1.1l0,0.2c-0.1,0-0.2,0-0.4,0c-2.6,0-5.7,1.2-6.1,3.2C31,55,31,55.4,31.2,55.8
	c-2.2,1.6-3.6,4.2-3.6,7.1C27.6,67.8,31.5,71.7,36.4,71.7 M33.2,57.9c1.1,0.6,2.6,1.2,4.3,1.5c1.1,0.2,2.2,0.3,3.1,0.3
	c0.3,0,0.5,0,0.7,0c0.6,0.9,1,2.1,1,3.3c0,3.3-2.7,5.9-5.9,5.9c-3.3,0-5.9-2.7-5.9-5.9C30.4,60.8,31.5,58.9,33.2,57.9"/>
<path fill="#FFFFFF" d="M237.1,48.6l8.2-8.2h12.1c11.1,0,20.2-9.1,20.2-20.2S268.5,0,257.3,0h-17c-11.1,0-20.2,9.1-20.2,20.2
	c0,6.6,3.2,12.6,8.3,16.3h-79.5c-0.8,0-1.5,0.7-1.5,1.5v9.7c0,0,0,0,0,0.1v74h-31.1l-0.5-15.3c0-0.1,0-0.2-0.1-0.4l-4.7-16v-2
	c0.9,0.6,1.8,1.1,2.8,1.7c1,0.6,2,1.2,3,1.8c0.2,0.1,0.5,0.2,0.8,0.2c0.5,0,0.9-0.2,1.2-0.6l2.5-3.8c0.4-0.6,0.3-1.3-0.1-1.8
	l-10-10.9v-1.9c0-0.2,0-0.5,0-0.7c-0.2-3.6-1.9-8.3-5.4-10.4c-1.2-0.7-2.5-1.1-3.9-1.1c-1.2,0-2.5,0.3-3.8,0.9
	c-5,2.4-7.9,9.7-8.3,15.5c-0.2,2.6-0.1,5.4,0.3,8.9c0.1,0.7,1.1,3.9,1.4,4.8c1.3,4.4,1.6,5.1,2.5,5.1c0.1,0,0.3,0,0.4,0l0.6-0.1
	c0.1,0.8,0.2,1.5,0.3,2.1l-0.3,13.7L90,121.8H41.2v-11h7.9l-4.4-18.2h2.8v-8.4c0-6.5-5.3-11.7-11.7-11.7c-6.5,0-11.7,5.3-11.7,11.7
	v8.4h2.9v-8.4c0-4.9,4-8.9,8.9-8.9c4.9,0,8.9,4,8.9,8.9v8.4h-2.9l3.7,15.4H26.1l3.7-15.4l-2.9,0l-4.4,18.2h8.9v11H0c0,0,0,0,0,0v3
	c0,0,0,0,0,0h34.2c0,0,0,0,0,0v-3c0,0,0,0,0,0v-11h4V122h0v2.8h54.8l0,0l0,0l4.6-12.3c0.1-0.2,0.1-0.3,0.1-0.5l0.2-10.1l6.4,6.8
	l0.4,1.6l0.9,3.9l1.8,7.6l0.7,3h8.2l34.1,0c0,0,0,0,0,0l-0.1-4.1V55.3c2.2,2.8,5.7,4.7,9.5,4.7c4.6,0,8.5-2.5,10.6-6.3
	c2.1,3.7,6,6.3,10.6,6.3c4.6,0,8.5-2.5,10.6-6.3c2.1,3.7,6,6.3,10.6,6.3c4.6,0,8.5-2.5,10.6-6.3c2.1,3.7,6,6.3,10.6,6.3
	c3.9,0,7.3-1.8,9.5-4.7l-0.1,69.6c0.3,0,0.6,0,0.9,0h24.5v-3H236V49.2C236.4,49.1,236.8,48.9,237.1,48.6 M111.1,79.1l7.1,7.7
	l-1.1,1.6c-0.5-0.3-1.8-1.1-1.8-1.1c-1.5-0.9-2.9-1.8-4.2-2.6V79.1z M95,92.9c-0.7-2-2.1-6.6-2.2-7.3c-0.4-3.3-0.5-5.9-0.3-8.3
	c0.4-5,2.9-11.3,6.7-13.1c0.9-0.4,1.8-0.6,2.6-0.6c0.8,0,1.6,0.2,2.4,0.7c2.2,1.3,3.9,4.6,4,8c0,0.2,0,0.4,0,0.6v16h-7.7l-0.7-8.8
	c0.7-1.1,1.6-2.7,2.6-4.8c0.6-1.3,1.3-2.6,1.9-4c0.2-0.3,0.2-0.7,0.1-1.1c-0.1-0.4-0.4-0.7-0.7-0.8c-0.2-0.1-0.4-0.1-0.6-0.1
	c-0.6,0-1.1,0.3-1.3,0.8c-1.6,3.4-3.3,6.8-4.6,8.8c-0.2,0.3-0.3,0.6-0.2,0.9l1,12.8L95,92.9z M110.4,121.8l-3.3-14.1
	c-0.1-0.2-0.2-0.5-0.4-0.7l-8.6-9.1c0-0.1-0.1-0.3-0.2-0.5c-0.1-0.4-0.2-1.1-0.2-1.8l1.8-0.2c0.8-0.1,1.3-0.8,1.3-1.6l-0.2-2h7.9
	l4.4,15l0.5,15H110.4z M223.1,20.2c0-9.5,7.7-17.2,17.2-17.2h17c9.5,0,17.2,7.7,17.2,17.2s-7.7,17.2-17.2,17.2H244l-8.1,8.1V38
	c0,0,0,0,0-0.1v-1.1l-1-0.3C227.9,34.2,223.1,27.6,223.1,20.2 M159.9,56.9c-4.5,0-8.3-3.3-9-7.6h17.9
	C168.2,53.6,164.4,56.9,159.9,56.9 M181.1,56.9c-4.5,0-8.3-3.3-9-7.6h17.9C189.3,53.6,185.6,56.9,181.1,56.9 M202.3,56.9
	c-4.5,0-8.3-3.3-9-7.6h17.9C210.5,53.6,206.8,56.9,202.3,56.9 M150.4,39.5h82.5v6.7h-82.5V39.5z M223.4,56.9c-4.5,0-8.3-3.3-9-7.6
	h17.9C231.7,53.6,228,56.9,223.4,56.9"/>
</svg>
