<?xml version="1.0" encoding="utf-8"?>
<!-- Generator: Adobe Illustrator 19.2.0, SVG Export Plug-In . SVG Version: 6.00 Build 0)  -->
<svg version="1.1" id="Capa_1" xmlns="http://www.w3.org/2000/svg" xmlns:xlink="http://www.w3.org/1999/xlink" x="0px" y="0px"
	 viewBox="0 0 120 120" style="enable-background:new 0 0 120 120;" xml:space="preserve">
<style type="text/css">
	.st0{fill:#BF0F13;}
	.st1{clip-path:url(#SVGID_2_);fill:#FFFFFF;}
</style>
<circle class="st0" cx="60" cy="60" r="60"/>
<g>
	<g>
		<defs>
			<rect id="SVGID_1_" x="25.9" y="25.9" width="68.3" height="68.3"/>
		</defs>
		<clipPath id="SVGID_2_">
			<use xlink:href="#SVGID_1_"  style="overflow:visible;"/>
		</clipPath>
		<path class="st1" d="M61.2,25.9c-18.2,0-32.9,14.8-32.9,32.9c0,0.5,0,1,0,1.4c-1.5,2.2-2.4,5.1-2.4,8.2c0,4.3,1.6,9.1,5.7,13.2
			l6.8,6.8c4.1,4.1,8.9,5.8,13.2,5.8c3.1,0,5.9-1,8.1-2.5c0.5,0,1,0.1,1.5,0.1c18.2,0,32.9-14.8,32.9-32.9S79.4,25.9,61.2,25.9
			 M61.2,29.1c16.5,0,29.7,13.3,29.7,29.7c0,16-12.5,28.9-28.3,29.6c0.1-0.2,0.1-0.5,0.2-0.7c0.2-1-0.1-2.2-1-3.1l-5.2-5.3
			c-0.8-0.8-2.2-1-3.1-0.8c-0.9,0.3-1.5,0.8-2.1,1.4c-0.9,0.9-1.8,1.3-2.7,1.3c-1,0-1.9-0.3-2.9-1.3l-5.7-5.7c-1-1-1.3-1.9-1.3-2.9
			c0-1,0.4-1.9,1.3-2.8c0.5-0.5,1-1.1,1.4-2c0.3-0.9,0.1-2.2-0.8-3.1l-5.3-5.2c-0.9-0.9-2.2-1.1-3.1-1c-0.2,0-0.5,0.1-0.7,0.2
			C32.3,41.6,45.2,29.1,61.2,29.1 M61.2,32.3c-0.7,0-1.6,0.8-1.6,1.6v4.8c0,0.9,0.7,1.6,1.6,1.6c0.9,0,1.6-0.8,1.6-1.6v-4.8
			C62.8,33,61.9,32.3,61.2,32.3 M49.2,35.5c-0.9,0-1.6,0.7-1.6,1.6c0,0.9,0.7,1.6,1.6,1.6c0.9,0,1.6-0.7,1.6-1.6
			C50.8,36.2,50,35.5,49.2,35.5 M73.3,35.5c-0.9,0-1.6,0.7-1.6,1.6c0,0.9,0.7,1.6,1.6,1.6c0.9,0,1.6-0.7,1.6-1.6
			C74.9,36.2,74.1,35.5,73.3,35.5 M39.5,45.1c-0.9,0-1.6,0.7-1.6,1.6c0,0.9,0.7,1.6,1.6,1.6c0.9,0,1.6-0.7,1.6-1.6
			C41.1,45.9,40.4,45.1,39.5,45.1 M82.9,45.1c-0.9,0-1.6,0.7-1.6,1.6c0,0.9,0.7,1.6,1.6,1.6s1.6-0.7,1.6-1.6
			C84.5,45.9,83.8,45.1,82.9,45.1 M61.2,53.2c-3.1,0-5.6,2.6-5.6,5.6c0,3.1,2.6,5.6,5.6,5.6s5.6-2.6,5.6-5.6
			C66.8,55.7,64.3,53.2,61.2,53.2 M61.2,56.4c1.4,0,2.4,1,2.4,2.4c0,1.4-1,2.4-2.4,2.4s-2.4-1-2.4-2.4
			C58.8,57.4,59.8,56.4,61.2,56.4 M79.7,58.8c0,0.7,0.8,1.6,1.6,1.6h4.8c0.9,0,1.6-0.7,1.6-1.6c0-0.9-0.8-1.6-1.6-1.6h-4.8
			C80.4,57.2,79.7,58.1,79.7,58.8 M32.7,60.4c0.2,0,0.3,0,0.4,0.1l5.2,5.1c-0.1,0.1-0.2,0.4-0.5,0.6c-1.4,1.4-2.2,3.1-2.2,5
			c-0.1,1.8,0.7,3.8,2.2,5.2l5.7,5.7c1.5,1.5,3.4,2.2,5.2,2.2s3.6-0.9,5-2.2c0.3-0.3,0.6-0.4,0.6-0.5l5.1,5.2
			c0.1,0.1,0.2,0.2,0.1,0.4c0,0.2-0.2,0.6-0.2,0.5c-3.7,3.7-11.9,5.1-18.7-1.7l-6.7-6.7c-6.8-6.8-5.4-15-1.7-18.7
			C32.1,60.6,32.4,60.4,32.7,60.4 M82.9,69.2c-0.9,0-1.6,0.7-1.6,1.6s0.7,1.6,1.6,1.6s1.6-0.7,1.6-1.6S83.8,69.2,82.9,69.2
			 M73.3,78.9c-0.9,0-1.6,0.7-1.6,1.6s0.7,1.6,1.6,1.6c0.9,0,1.6-0.7,1.6-1.6S74.1,78.9,73.3,78.9"/>
	</g>
</g>
</svg>
