<?xml version="1.0" encoding="utf-8"?>
<!-- Generator: Adobe Illustrator 18.1.1, SVG Export Plug-In . SVG Version: 6.00 Build 0)  -->
<!DOCTYPE svg PUBLIC "-//W3C//DTD SVG 1.1//EN" "http://www.w3.org/Graphics/SVG/1.1/DTD/svg11.dtd">
<svg version="1.1" id="Capa_1" xmlns="http://www.w3.org/2000/svg" xmlns:xlink="http://www.w3.org/1999/xlink" x="0px" y="0px"
	 viewBox="0 0 120 120" enable-background="new 0 0 120 120" xml:space="preserve">
<circle fill="#BF0F13" cx="60" cy="60" r="60"/>
<g>
	<defs>
		<rect id="SVGID_1_" x="20.6" y="26.9" width="76.7" height="74.2"/>
	</defs>
	<clipPath id="SVGID_2_">
		<use xlink:href="#SVGID_1_"  overflow="visible"/>
	</clipPath>
	<path clip-path="url(#SVGID_2_)" fill="#FFFFFF" d="M89.8,26.9l-48.8,0c-4.2,0-7.6,3.4-7.6,7.6l0,10.3h-5.2c-4.2,0-7.6,3.4-7.6,7.6
		l0,27c0,4.2,3.4,7.6,7.6,7.6l7.8,0l0,12.8c0,0.5,0.3,1,0.8,1.2c0.2,0.1,0.3,0.1,0.5,0.1c0.4,0,0.7-0.1,0.9-0.4L50.6,87L77,87
		c4.2,0,7.6-3.4,7.6-7.6l0-10.3l5.2,0c4.2,0,7.6-3.4,7.6-7.6l0-27C97.4,30.3,94,26.9,89.8,26.9 M82,79.4c0,2.8-2.3,5-5,5l-26.9,0
		c-0.4,0-0.7,0.2-0.9,0.4L38.5,96.5l0-10.8c0-0.7-0.6-1.3-1.3-1.3h-9c-2.8,0-5-2.3-5-5l0-27c0-2.8,2.3-5,5-5h6.5l42.3,0
		c1,0,2,0.3,2.8,0.9c1.3,0.9,2.2,2.4,2.2,4.2l0,15.4V79.4z M94.8,61.5c0,2.8-2.3,5-5,5h-5.2V52.4c0-3.4-2.3-6.3-5.3-7.2
		C79,45.1,78.8,45,78.5,45c-0.5-0.1-1-0.2-1.5-0.2l-41,0l0-10.3c0-2.8,2.3-5,5-5l48.8,0c2.8,0,5,2.3,5,5L94.8,61.5z"/>
	<path clip-path="url(#SVGID_2_)" fill="#FFFFFF" d="M36,60.2l17.9,0c0.7,0,1.3-0.6,1.3-1.3c0-0.7-0.6-1.3-1.3-1.3l-17.9,0
		c-0.7,0-1.3,0.6-1.3,1.3C34.7,59.6,35.3,60.2,36,60.2"/>
	<path clip-path="url(#SVGID_2_)" fill="#FFFFFF" d="M70.5,65.3l-34.5,0c-0.7,0-1.3,0.6-1.3,1.3c0,0.7,0.6,1.3,1.3,1.3l34.5,0
		c0.7,0,1.3-0.6,1.3-1.3S71.2,65.3,70.5,65.3"/>
	<path clip-path="url(#SVGID_2_)" fill="#FFFFFF" d="M70.5,73L36,73c-0.7,0-1.3,0.6-1.3,1.3s0.6,1.3,1.3,1.3l34.5,0
		c0.7,0,1.3-0.6,1.3-1.3C71.8,73.6,71.2,73,70.5,73"/>
</g>
</svg>
