<?xml version="1.0" encoding="utf-8"?>
<!-- Generator: Adobe Illustrator 19.2.0, SVG Export Plug-In . SVG Version: 6.00 Build 0)  -->
<svg version="1.1" id="Capa_1" xmlns="http://www.w3.org/2000/svg" xmlns:xlink="http://www.w3.org/1999/xlink" x="0px" y="0px"
	 viewBox="0 0 120 120" style="enable-background:new 0 0 120 120;" xml:space="preserve">
<style type="text/css">
	.st0{fill:#BF0F13;}
	.st1{fill:#FFFFFF;}
</style>
<circle class="st0" cx="60" cy="60" r="60"/>
<g>
	<g>
		<path class="st1" d="M74.8,65.2c-11,0-20-9-20-20c0-11,9-20,20-20s20,9,20,20C94.8,56.3,85.8,65.2,74.8,65.2z M74.8,27.3
			c-9.9,0-18,8.1-18,18s8.1,18,18,18c9.9,0,18-8.1,18-18S84.7,27.3,74.8,27.3z"/>
	</g>
</g>
<g>
	<g>
		<path class="st1" d="M81.8,49v0.3c0,2.9-2.4,5.3-5.3,5.3h-0.4v2.7c0,0.3-0.2,0.5-0.5,0.5h-1.9c-0.3,0-0.5-0.2-0.5-0.5v-2.7h-3.5
			c-0.3,0-0.5-0.2-0.5-0.5v-1.9c0-0.3,0.2-0.5,0.5-0.5h6.3h0.4c1.4,0,2.5-1.1,2.5-2.5V49c0-1.4-1.1-2.5-2.5-2.5h-3.3
			c-2.8,0-5.2-2-5.5-4.8c-0.3-3.2,2.2-5.8,5.3-5.8h0.4v-2.7c0-0.3,0.2-0.5,0.5-0.5h1.9c0.3,0,0.5,0.2,0.5,0.5v2.7h3.6
			c0.2,0,0.4,0.2,0.4,0.4v1.9c0,0.3-0.2,0.5-0.5,0.5l-6.5,0c-1.3,0-2.5,0.9-2.7,2.3c-0.2,1.5,1,2.8,2.5,2.8h3.5
			C79.5,43.7,81.8,46.1,81.8,49"/>
	</g>
</g>
<g>
	<path class="st1" d="M33.1,93.7c-0.3,0-0.7-0.1-0.9-0.4L19.4,80.5c-0.4-0.4-0.7-1-0.7-1.6c0-0.6,0.2-1.2,0.7-1.6
		c0.3-0.3,2.7-2.7,5.1-5.7c3.4-4.2,6.5-6.5,9.6-7.4c11.3-3.3,21.6,1.6,24.4,3.5c1,0.7,2.3,1.6,3.4,2.3c0.8,0.5,1.3,0.9,1.7,1.1
		c0.6,0,1.5-0.1,2.3-0.2c2.5-0.2,6-0.5,9.7-0.5h0c3.5,0,6.8,1.2,8.7,2.5l0.7-0.5c0.7-0.7,7.9-7,11.9-9c2.2-1,4.9,0.2,5.4,0.7
		c1.8,1.7,1.9,2.1,2,2.4c0.1,0.7,0,1.4-0.5,1.9c0,0,0,0,0,0L90.2,83.5c-0.2,0.2-0.5,0.5-0.8,0.6l-20.9,8c-0.4,0.2-0.9,0.2-1.4,0.1
		c-8.3-2.1-22.6-5.2-25.9-4.6c-2.7,0.5-5.2,3.5-6.4,4.9C34.1,93.3,33.8,93.7,33.1,93.7C33.1,93.7,33.1,93.7,33.1,93.7z M21.2,79
		L33,90.8c1.4-1.7,4.2-5,7.7-5.6c4.8-0.8,25.6,4.3,26.8,4.7l20.8-8l13.3-14.7c-0.2-0.2-0.6-0.6-1.1-1.1c-0.4-0.2-1.9-0.8-2.8-0.3
		c-3.1,1.5-8.6,6.1-11.5,8.7l-0.5,0.4c0.5,0.8,0.7,1.6,0.7,2.3c0,1.3-0.5,2.4-1.1,2.9l-0.2,0.2c-0.2,0.2-0.4,0.3-0.6,0.3l-0.3,0.1
		c-0.2,0-0.2,0-1.3,0c-0.7,0-1.7,0-2.7,0c-0.7,0-2.1,0.5-3,0.8c-0.4,0.1-0.8,0.3-1,0.3c0,0-0.1,0-0.1,0C72,82.5,63.6,84,62.1,84.4
		c-0.6,0.2-1.3-0.2-1.5-0.8c-0.2-0.6,0.2-1.3,0.8-1.5c1.9-0.5,13.3-2.5,14.3-2.7c0.2-0.1,0.5-0.2,0.8-0.3c1.1-0.4,2.6-0.9,3.8-0.9
		c1,0,2,0,2.7,0c0.3,0,0.6,0,0.8,0c0.2-0.3,0.8-1.5-0.5-2.7c-1.1-1-4.3-2.5-7.9-2.5c0,0,0,0,0,0c-3.6,0-7,0.3-9.5,0.5
		c-1.4,0.1-2.4,0.2-2.9,0.2c-0.3,0-0.5-0.1-0.7-0.2c-0.3-0.2-0.8-0.6-1.9-1.3c-1.1-0.7-2.4-1.6-3.4-2.3c-2.5-1.8-11.9-6.2-22.3-3.2
		c-2.6,0.8-5.3,2.9-8.4,6.6C24.1,76,21.8,78.4,21.2,79z"/>
</g>
</svg>
