<?xml version="1.0" encoding="utf-8"?>
<!-- Generator: Adobe Illustrator 17.0.0, SVG Export Plug-In . SVG Version: 6.00 Build 0)  -->
<!DOCTYPE svg PUBLIC "-//W3C//DTD SVG 1.1//EN" "http://www.w3.org/Graphics/SVG/1.1/DTD/svg11.dtd">
<svg version="1.1" id="Capa_1" xmlns="http://www.w3.org/2000/svg" xmlns:xlink="http://www.w3.org/1999/xlink" x="0px" y="0px"
	 width="276px" height="125px" viewBox="168 333.5 276 125" enable-background="new 168 333.5 276 125" xml:space="preserve">
<path fill="#FFFFFF" d="M272.479,392.455c3.509,0,6.336-2.827,6.336-6.239c0-3.509-2.827-6.239-6.336-6.239
	s-6.239,2.827-6.239,6.239C266.143,389.628,268.97,392.455,272.479,392.455 M272.479,382.707c1.95,0,3.509,1.56,3.509,3.412
	c0,1.852-1.56,3.412-3.509,3.412c-1.95,0-3.412-1.56-3.412-3.412C269.067,384.266,270.529,382.707,272.479,382.707"/>
<path fill="#FFFFFF" d="M387.215,409.514H359.92c-0.78,0-1.462,0.682-1.462,1.462v30.512c0,0.78,0.682,1.462,1.462,1.462h27.295
	c0.78,0,1.462-0.682,1.462-1.462v-30.512C388.677,410.196,387.995,409.514,387.215,409.514 M385.753,440.123h-24.37v-27.685h24.37
	V440.123L385.753,440.123z"/>
<path fill="#FFFFFF" d="M352.122,409.514h-27.295c-0.78,0-1.462,0.682-1.462,1.462v43.379l0.098,0.097c0.097,0,0.195,0,0.39,0h2.437
	v-41.917h24.37v41.625c0.975,0,1.95,0,2.924,0.097v-43.282C353.584,410.196,352.902,409.514,352.122,409.514"/>
<path fill="#FFFFFF" d="M368.011,425.014c0.39,0,0.78-0.097,1.072-0.39l5.556-5.556c0.585-0.585,0.585-1.462,0-2.047
	s-1.462-0.585-2.047,0l-5.556,5.556c-0.585,0.585-0.585,1.462,0,2.047C367.231,424.819,367.621,425.014,368.011,425.014"/>
<path fill="#FFFFFF" d="M374.445,435.542c-0.585,0.585-0.585,1.462,0,2.047c0.292,0.292,0.682,0.39,1.072,0.39
	c0.39,0,0.78-0.097,1.072-0.39l5.556-5.556c0.585-0.585,0.585-1.462,0-2.047c-0.585-0.585-1.462-0.585-2.047,0L374.445,435.542z"/>
<path fill="#FFFFFF" d="M366.744,437.101c0.39,0,0.78-0.097,1.072-0.39l12.673-12.673c0.585-0.585,0.585-1.462,0-2.047
	c-0.585-0.585-1.462-0.585-2.047,0l-12.673,12.673c-0.585,0.585-0.585,1.462,0,2.047
	C365.964,437.004,366.354,437.101,366.744,437.101"/>
<path fill="#FFFFFF" d="M345.006,429.303c1.267,0,2.242,0.975,2.242,2.242c0,1.267-0.975,2.242-2.242,2.242
	s-2.242-0.975-2.242-2.242C342.763,430.278,343.738,429.303,345.006,429.303"/>
<path fill="#FFFFFF" d="M421.626,358.434v0.292c0,2.827-2.34,5.167-5.167,5.167h-0.39v2.632c0,0.292-0.195,0.487-0.487,0.487h-1.852
	c-0.292,0-0.487-0.195-0.487-0.487v-2.632h-3.412c-0.292,0-0.487-0.195-0.487-0.487v-1.852c0-0.292,0.195-0.487,0.487-0.487h6.141
	h0.39c1.365,0,2.437-1.072,2.437-2.437v-0.292c0-1.365-1.072-2.437-2.437-2.437h-3.217c-2.729,0-5.069-1.95-5.362-4.679
	c-0.292-3.119,2.145-5.654,5.167-5.654h0.39v-2.535c0-0.292,0.195-0.487,0.487-0.487h1.852c0.292,0,0.487,0.195,0.487,0.487v2.632
	h3.509c0.195,0,0.39,0.195,0.39,0.39v1.852c0,0.292-0.195,0.487-0.487,0.487h-6.336c-1.267,0-2.437,0.877-2.535,2.242
	c-0.195,1.462,0.975,2.729,2.437,2.729h3.412C419.287,353.267,421.626,355.607,421.626,358.434"/>
<path fill="#FFFFFF" d="M238.555,427.256h-13.55v-8.871h-2.827v8.871v0.877v20.471h2.632c-0.877,0.585-1.462,1.462-1.462,2.632
	c0,1.657,1.365,3.119,3.119,3.119c1.657,0,3.119-1.365,3.119-3.119s-1.365-3.119-3.119-3.119c-0.585,0-1.072,0.195-1.462,0.39
	v-18.522h10.82v18.424c-0.487-0.195-0.975-0.39-1.462-0.39c-1.657,0-3.119,1.365-3.119,3.119s1.365,3.119,3.119,3.119
	c1.657,0,3.119-1.365,3.119-3.119c0-1.072-0.585-2.047-1.462-2.632h2.632v-21.251H238.555z M226.468,450.944
	c0.195,0,0.292,0.097,0.292,0.292c0,0.195-0.097,0.292-0.292,0.292s-0.292-0.098-0.292-0.292
	C226.175,451.041,226.273,450.944,226.468,450.944 M234.266,451.529c-0.195,0-0.292-0.098-0.292-0.292
	c0-0.195,0.097-0.292,0.292-0.292s0.292,0.097,0.292,0.292C234.559,451.431,234.461,451.529,234.266,451.529"/>
<path fill="#FFFFFF" d="M206.289,405.127c4.777,0,8.578-3.802,8.578-8.578c0-1.462-0.39-2.729-0.975-3.997
	c0.585-0.487,0.877-0.975,0.975-1.365c0.39-1.852-1.852-4.192-4.679-5.167v-0.195c0.195-0.78-0.39-1.462-1.072-1.657
	c-0.78-0.097-1.462,0.39-1.657,1.072v0.195c-0.097,0-0.195,0-0.39,0c-2.535,0-5.556,1.17-5.946,3.119
	c-0.097,0.292-0.097,0.682,0.097,1.072c-2.145,1.56-3.509,4.094-3.509,6.921C197.71,401.326,201.512,405.127,206.289,405.127
	 M203.169,391.675c1.072,0.585,2.535,1.17,4.192,1.462c1.072,0.195,2.145,0.292,3.022,0.292c0.292,0,0.487,0,0.682,0
	c0.585,0.877,0.975,2.047,0.975,3.217c0,3.217-2.632,5.751-5.751,5.751c-3.217,0-5.751-2.632-5.751-5.751
	C200.44,394.502,201.512,392.65,203.169,391.675"/>
<path fill="#FFFFFF" d="M401.935,382.609l7.994-7.994h11.795c10.82,0,19.691-8.871,19.691-19.691
	c0-10.82-8.871-19.691-19.789-19.691h-16.572c-10.82,0-19.691,8.871-19.691,19.691c0,6.434,3.119,12.283,8.091,15.89h-77.498
	c-0.78,0-1.462,0.682-1.462,1.462v9.456c0,0,0,0,0,0.097v72.137h-30.317l-0.487-14.915c0-0.097,0-0.195-0.097-0.39l-4.582-15.597
	v-1.95c0.877,0.585,1.755,1.072,2.729,1.657c0.975,0.585,1.95,1.17,2.924,1.755c0.195,0.097,0.487,0.195,0.78,0.195
	c0.487,0,0.877-0.195,1.17-0.585l2.437-3.704c0.39-0.585,0.292-1.267-0.097-1.755l-9.748-10.626V406.2c0-0.195,0-0.487,0-0.682
	c-0.195-3.509-1.852-8.091-5.264-10.138c-1.17-0.682-2.437-1.072-3.802-1.072c-1.17,0-2.437,0.292-3.704,0.877
	c-4.874,2.34-7.701,9.456-8.091,15.11c-0.195,2.535-0.097,5.264,0.292,8.676c0.098,0.682,1.072,3.802,1.365,4.679
	c1.267,4.289,1.56,4.972,2.437,4.972c0.098,0,0.292,0,0.39,0l0.585-0.098c0.098,0.78,0.195,1.462,0.292,2.047l-0.292,13.355
	l-4.874,10.041h-47.571v-10.723h7.701l-4.289-17.742h2.729v-8.188c0-6.336-5.167-11.405-11.405-11.405
	c-6.336,0-11.405,5.167-11.405,11.405v8.188h2.827v-8.188c0-4.777,3.899-8.676,8.676-8.676c4.777,0,8.676,3.899,8.676,8.676v8.188
	h-2.827l3.607,15.012h-19.009l3.607-15.012h-2.827l-4.289,17.742h8.676v10.723h-30.609l0,0v2.924l0,0h33.339l0,0v-2.924l0,0v-10.723
	h3.899v10.918l0,0v2.729h53.42l0,0l0,0l4.484-11.99c0.097-0.195,0.097-0.292,0.097-0.487l0.195-9.846l6.239,6.629l0.39,1.56
	l0.877,3.802l1.755,7.409l0.682,2.924h7.994h33.241l0,0l-0.098-3.997V389.14c2.145,2.729,5.556,4.582,9.261,4.582
	c4.484,0,8.286-2.437,10.333-6.141c2.047,3.607,5.849,6.141,10.333,6.141c4.484,0,8.286-2.437,10.333-6.141
	c2.047,3.607,5.849,6.141,10.333,6.141c4.484,0,8.286-2.437,10.333-6.141c2.047,3.607,5.849,6.141,10.333,6.141
	c3.802,0,7.116-1.755,9.261-4.582l-0.097,67.847c0.292,0,0.585,0,0.877,0h23.883v-2.924h-21.641v-70.869
	C401.253,383.096,401.642,382.901,401.935,382.609 M279.108,412.341l6.921,7.506l-1.072,1.56c-0.487-0.292-1.755-1.072-1.755-1.072
	c-1.462-0.877-2.827-1.755-4.094-2.535V412.341z M263.413,425.793c-0.682-1.95-2.047-6.434-2.145-7.116
	c-0.39-3.217-0.487-5.751-0.292-8.091c0.39-4.874,2.827-11.015,6.531-12.77c0.877-0.39,1.755-0.585,2.535-0.585
	c0.78,0,1.56,0.195,2.34,0.682c2.145,1.267,3.802,4.484,3.899,7.799c0,0.195,0,0.39,0,0.585v15.597h-7.506l-0.682-8.578
	c0.682-1.072,1.56-2.632,2.535-4.679c0.585-1.267,1.267-2.535,1.852-3.899c0.195-0.292,0.195-0.682,0.097-1.072
	c-0.097-0.39-0.39-0.682-0.682-0.78c-0.195-0.097-0.39-0.097-0.585-0.097c-0.585,0-1.072,0.292-1.267,0.78
	c-1.56,3.314-3.217,6.629-4.484,8.578c-0.195,0.292-0.292,0.585-0.195,0.877l0.975,12.478L263.413,425.793z M278.425,453.966
	l-3.217-13.745c-0.098-0.195-0.195-0.487-0.39-0.682l-8.383-8.871c0-0.097-0.097-0.292-0.195-0.487
	c-0.098-0.39-0.195-1.072-0.195-1.755l1.755-0.195c0.78-0.097,1.267-0.78,1.267-1.56l-0.195-1.95h7.701l4.289,14.622l0.487,14.622
	H278.425L278.425,453.966z M388.287,354.924c0-9.261,7.506-16.767,16.767-16.767h16.572c9.261,0,16.767,7.506,16.767,16.767
	s-7.506,16.767-16.767,16.767h-12.965l-7.896,7.896v-7.311c0,0,0,0,0-0.097v-1.072l-0.975-0.292
	C392.967,368.572,388.287,362.138,388.287,354.924 M326.679,390.7c-4.387,0-8.091-3.217-8.773-7.409h17.449
	C334.77,387.483,331.066,390.7,326.679,390.7 M347.345,390.7c-4.387,0-8.091-3.217-8.773-7.409h17.449
	C355.339,387.483,351.732,390.7,347.345,390.7 M368.011,390.7c-4.387,0-8.091-3.217-8.773-7.409h17.449
	C376.005,387.483,372.398,390.7,368.011,390.7 M317.418,373.738h80.422v6.531h-80.422V373.738z M388.58,390.7
	c-4.387,0-8.091-3.217-8.773-7.409h17.449C396.671,387.483,393.064,390.7,388.58,390.7"/>
</svg>
