<?xml version="1.0" encoding="utf-8"?>
<!-- Generator: Adobe Illustrator 19.2.0, SVG Export Plug-In . SVG Version: 6.00 Build 0)  -->
<svg version="1.1" id="Capa_1" xmlns="http://www.w3.org/2000/svg" xmlns:xlink="http://www.w3.org/1999/xlink" x="0px" y="0px"
	 viewBox="0 0 120 120" style="enable-background:new 0 0 120 120;" xml:space="preserve">
<style type="text/css">
	.st0{fill:#BF0F13;}
	.st1{fill:#FFFFFF;}
</style>
<circle class="st0" cx="60" cy="60" r="60"/>
<g>
	<path class="st1" d="M91.6,35.1h-3.4h-7.1h-2.4v-2.7c0-3.8-3.1-6.8-6.8-6.8H37.8c-3.8,0-6.8,3.1-6.8,6.8v58c0,3.8,3.1,6.8,6.8,6.8
		h34.1c3.8,0,6.8-3.1,6.8-6.8V75.8h2.4h7.1h3.4c2.1,0,3.9-1.7,3.9-3.9V39C95.5,36.9,93.8,35.1,91.6,35.1z M76.3,90.4
		c0,2.5-2,4.4-4.4,4.4H37.8c-2.5,0-4.4-2-4.4-4.4v-58c0-2.5,2-4.4,4.4-4.4h34.1c2.5,0,4.4,2,4.4,4.4v2.7v40.6V90.4z M78.7,73.3V37.5
		h2.4v35.8H78.7z M83.6,73.3V37.5H86v35.8H83.6z M93.1,71.9c0,0.8-0.7,1.4-1.4,1.4h-3.4V37.5h3.4c0.8,0,1.4,0.7,1.4,1.4V71.9z"/>
	<circle class="st1" cx="90.7" cy="42.4" r="1.2"/>
	<circle class="st1" cx="90.7" cy="48.3" r="1.2"/>
	<path class="st1" d="M37,51.9h35.8V36.4H37V51.9z M39.4,38.7h31v10.8h-31V38.7z"/>
	<path class="st1" d="M44.2,34c0.7,0,1.2-0.6,1.2-1.2s-0.6-1.2-1.2-1.2h-7.1c-0.7,0-1.2,0.6-1.2,1.2s0.6,1.2,1.2,1.2H44.2z"/>
	<path class="st1" d="M38.2,68.5h9.5v-8.4h-9.5V68.5z M40.5,62.6h4.8v3.6h-4.8V62.6z"/>
	<path class="st1" d="M50.2,68.5h9.5v-8.4h-9.5V68.5z M52.5,62.6h4.8v3.6h-4.8V62.6z"/>
	<path class="st1" d="M62.1,68.5h9.5v-8.4h-9.5C62.1,60.2,62.1,68.5,62.1,68.5z M64.4,62.6h4.8v3.6h-4.8
		C64.4,66.1,64.4,62.6,64.4,62.6z"/>
	<path class="st1" d="M38.2,78.2h9.5v-8.4h-9.5V78.2z M40.5,72.2h4.8v3.6h-4.8V72.2z"/>
	<path class="st1" d="M50.2,78.2h9.5v-8.4h-9.5V78.2z M52.5,72.2h4.8v3.6h-4.8V72.2z"/>
	<path class="st1" d="M38.2,88.8h9.5v-8.4h-9.5V88.8z M40.5,82.9h4.8v3.6h-4.8V82.9z"/>
	<path class="st1" d="M50.2,88.8h9.5v-8.4h-9.5V88.8z M52.5,82.9h4.8v3.6h-4.8V82.9z"/>
	<path class="st1" d="M62.1,88.8h9.5V69.8h-9.5C62.1,69.8,62.1,88.8,62.1,88.8z M64.4,72.2h4.8v14.3h-4.8
		C64.4,86.5,64.4,72.2,64.4,72.2z"/>
</g>
</svg>
