<?xml version="1.0" encoding="utf-8"?>
<!-- Generator: Adobe Illustrator 18.1.1, SVG Export Plug-In . SVG Version: 6.00 Build 0)  -->
<!DOCTYPE svg PUBLIC "-//W3C//DTD SVG 1.1//EN" "http://www.w3.org/Graphics/SVG/1.1/DTD/svg11.dtd">
<svg version="1.1" id="Capa_1" xmlns="http://www.w3.org/2000/svg" xmlns:xlink="http://www.w3.org/1999/xlink" x="0px" y="0px"
	 viewBox="0 0 58.1 49.9" enable-background="new 0 0 58.1 49.9" xml:space="preserve">
<g>
	<g>
		<g>
			<g>
				<g>
					<path fill="#cc0000" d="M0,2.1L11.7,0l3.6,21.6L3.5,23.5L0,2.1z M2,3.4l3,18.3l8.6-1.6L10.4,1.9L2,3.4z M5.1,9.2
						C4.5,8.8,4.1,8.1,4,7.3C3.9,6.5,4,5.7,4.5,5.1c0.5-0.6,1.2-1,2-1.2C7.3,3.8,8.1,4,8.7,4.5c0.6,0.5,1,1.1,1.1,1.9
						C10.1,8.1,9,9.5,7.4,9.8C6.5,9.9,5.7,9.7,5.1,9.2z M7.6,5.9C7.4,5.8,7.1,5.7,6.7,5.7C6.4,5.8,6.2,5.9,6,6.2
						C5.8,6.4,5.8,6.7,5.8,7c0,0.3,0.2,0.6,0.4,0.7l0,0C6.5,7.9,6.8,8,7.1,8c0.3,0,0.6-0.2,0.8-0.4C8,7.3,8.1,7,8,6.7
						C8,6.4,7.8,6.1,7.6,5.9z"/>
				</g>
				<g>
					<path fill="#cc0000" d="M39,27.1c-0.7-0.5-0.8-1.5-0.7-2l-0.6-6.4c-0.1-0.8-0.6-1.5-0.6-1.5L36.6,17l2.1,0.1l0.9,0.3
						c0,0,0.6,0.4,0.6,0.4c0.1,0.1,0.6,0.5,0.7,1.4l0.6,6.9c-0.2,1.1-0.9,1.3-1.3,1.4c-0.3,0-0.6,0-0.6,0
						C39.4,27.3,39.2,27.2,39,27.1z"/>
				</g>
				<g>
					<path fill="#cc0000" d="M43.2,28.3c-0.6-0.5-0.8-1.7-0.9-2.3l-0.6-6.9c-0.1-0.7-0.5-1-0.5-1c-0.1-0.4-0.1-0.5-0.4-0.6
						c1.4,0,2.3,0.3,2.4,0.3c0.3,0.1,0.6,0.3,0.9,0.4c1.1,0.8,1,2.2,1,2.2c-0.1,0.8,0,2.1,0.1,3.6c0.1,1.4,0.2,2.7,0.2,3.7
						c-0.2,0.5-0.4,0.8-0.7,0.9l-0.3,0C43.9,28.7,43.4,28.5,43.2,28.3z"/>
				</g>
				<g>
					<path fill="#cc0000" d="M10.8,4.3L21,2.4c0.1,0,2.8,0,5,0.1c0.4,0,9.6,0.8,21.8,9.4c0.1,0.1,0.5,0.3,1,0.6
						c1,0.8,2.8,2.5,2.9,5.2c0.2,1.4,0.8,8.4-1.3,10.8c-0.4,0.5-1,0.8-1.5,0.9c-0.7,0-1.3-0.2-1.8-0.6c-0.6-0.4-1.3-1.3-1.2-3
						c0,0-0.2-4.3-0.1-6.5c-0.1-0.3-0.3-0.6-0.6-0.8c-0.1-0.1-0.3-0.2-0.4-0.3c-0.4-0.2-3.9-1.9-7.8-2.1c-0.6,0.2-1.2,0.4-1.5,0.6
						c-0.2,0.2-1.5,1.2-2.7,3.2c-0.4,0.5-0.3,1,0.1,1.3c0,0,0,0,0,0c1.7,1.3,6.3,5,6.8,8.3l0,0c0.1,0.1,0.4,1.4-0.1,2.4
						c-0.2,0.4-0.7,0.9-1.6,1c-0.2,0-0.7,0.1-3.4-1.4l-4.7-2.7c-0.2-0.1-2.6-0.7-5.6-3c-2.7-2-5-4.7-7.1-8l-3.8,0.8L10.8,4.3z
						 M47.6,13.9c-0.4-0.3-0.7-0.4-0.7-0.5c-11.9-8.3-21-9.1-21.1-9.1c-1.9-0.1-4.2-0.1-4.7-0.1l-8.6,1.3l2,11.1l3.3-0.8l0.5,0.5
						c2,3.2,4.3,5.9,6.9,7.9c2.9,2.2,5,2.8,5.1,2.8l5,2.8c1.8,1.1,2.4,1.2,2.4,1.2c0.2-0.3,0.1-0.9,0-1.1c-0.5-2.9-5.2-6.6-5.7-7
						l-0.3-0.4l-0.1,0.1c-1.6-1.2-1.2-2.9-0.5-3.8c1.4-2.5,3.1-3.7,3.1-3.7c0.9-0.6,2.2-0.9,2.4-0.9c4.8,0.2,8.7,2.3,8.7,2.3
						c0.3,0.1,0.5,0.3,0.7,0.4c1.1,0.9,1.3,2.1,1.4,2.2c-0.1,2.3,0.2,6.5,0.2,6.6c0,1.1,0.3,1.5,0.6,1.7c0.4,0.1,0.6,0.1,0.7-0.1
						c1.4-1.6,1-7.5,0.8-9.4C49.7,15.9,48.4,14.5,47.6,13.9z"/>
				</g>
			</g>
		</g>
	</g>
	<path fill="#cc0000" d="M49,49.9c-5.1,0.1-9.4-4.1-9.4-9.2s4.1-9.3,9.2-9.3c0.8,0,1.5,0.1,2.3,0.3c3.1,0.7,5.7,3.2,6.6,6.3
		c0.8,2.9,0.3,5.9-1.4,8.3C54.5,48.5,51.9,49.9,49,49.9z M48.8,33c-4.3,0-7.7,3.5-7.7,7.7s3.6,7.6,7.8,7.6c0.5,0,0.9-0.1,1.4-0.1
		c2.9-0.5,5.4-3,6-5.9c0.5-2.3-0.1-4.7-1.6-6.5C53.3,34,51.1,33,48.8,33z"/>
	<g>
		<g>
			<path fill="#cc0000" d="M48.9,43.6c-0.6,0-1.1-0.4-1.1-0.9c0-0.4-0.3-0.7-0.7-0.7s-0.7,0.3-0.7,0.7c0,1.1,0.8,1.9,1.9,2.2V46
				c0,0.4,0.3,0.7,0.7,0.7s0.7-0.3,0.7-0.7v-1.1c1.1-0.3,1.9-1.1,1.9-2.2c0-1.6-1.3-2.3-2.2-2.8s-1.4-0.8-1.4-1.4
				c0-0.2,0.2-0.5,0.3-0.5c0.2-0.2,0.5-0.3,0.7-0.3l0,0c0.6,0,1,0.3,1,0.8c0,0.4,0.3,0.7,0.7,0.7s0.7-0.3,0.7-0.7
				c0-1-0.7-1.8-1.7-2.1v-1.1c0-0.4-0.3-0.7-0.7-0.7c-0.3,0-0.7,0.3-0.7,0.7v1.1c-0.3,0.1-0.7,0.3-1,0.5c-0.5,0.4-0.7,1-0.7,1.6
				c0,1.5,1.2,2.1,2.1,2.6c1,0.5,1.5,0.9,1.5,1.5C50.1,43.2,49.6,43.6,48.9,43.6z"/>
		</g>
	</g>
</g>
</svg>
