<?xml version="1.0" encoding="utf-8"?>
<!-- Generator: Adobe Illustrator 18.1.1, SVG Export Plug-In . SVG Version: 6.00 Build 0)  -->
<!DOCTYPE svg PUBLIC "-//W3C//DTD SVG 1.1//EN" "http://www.w3.org/Graphics/SVG/1.1/DTD/svg11.dtd">
<svg version="1.1" id="Capa_1" xmlns="http://www.w3.org/2000/svg" xmlns:xlink="http://www.w3.org/1999/xlink" x="0px" y="0px"
	 viewBox="-0.5 9.8 90.4 70.5" enable-background="new -0.5 9.8 90.4 70.5" xml:space="preserve">
<g>
	<g>
		<g>
			<g>
				<path fill="#CC3333" d="M0.7,80.3c-0.7,0-1.2-0.6-1.2-1.2V11c0-0.7,0.6-1.2,1.2-1.2h87.9c0.7,0,1.2,0.6,1.2,1.2v68
					c0,0.7-0.6,1.2-1.2,1.2H0.7z M2,77.8l85.5,0l0-57.1L2,20.7V77.8z M2,18.3l85.5,0l0-6L2,12.3V18.3z"/>
			</g>
			<g>
				<circle fill="#CC3333" cx="5.2" cy="15.3" r="1.2"/>
			</g>
			<g>
				<circle fill="#CC3333" cx="9" cy="15.3" r="1.2"/>
			</g>
			<g>
				<circle fill="#CC3333" cx="12.7" cy="15.3" r="1.2"/>
			</g>
			<g>
				<path fill="#CC3333" d="M56.3,49.9c-0.7,0-1.2-0.6-1.2-1.2s0.6-1.2,1.2-1.2h13.8c0.7,0,1.2,0.6,1.2,1.2s-0.6,1.2-1.2,1.2H56.3z"
					/>
			</g>
			<g>
				<path fill="#CC3333" d="M56.3,58c-0.7,0-1.2-0.6-1.2-1.2c0-0.7,0.6-1.2,1.2-1.2h24.1c0.7,0,1.2,0.6,1.2,1.2
					c0,0.7-0.6,1.2-1.2,1.2H56.3z"/>
			</g>
			<g>
				<path fill="#CC3333" d="M56.3,62.1c-0.7,0-1.2-0.6-1.2-1.2c0-0.7,0.6-1.2,1.2-1.2h24.1c0.7,0,1.2,0.6,1.2,1.2
					c0,0.7-0.6,1.2-1.2,1.2H56.3z"/>
			</g>
			<g>
				<path fill="#CC3333" d="M56.3,66.3c-0.7,0-1.2-0.6-1.2-1.2c0-0.7,0.6-1.2,1.2-1.2h24.1c0.7,0,1.2,0.6,1.2,1.2
					c0,0.7-0.6,1.2-1.2,1.2H56.3z"/>
			</g>
			<g>
				<path fill="#CC3333" d="M56.3,70.4c-0.7,0-1.2-0.6-1.2-1.2c0-0.7,0.6-1.2,1.2-1.2h19.3c0.7,0,1.2,0.6,1.2,1.2
					c0,0.7-0.6,1.2-1.2,1.2H56.3z"/>
			</g>
			<g>
				<g>
					<path fill="#CC3333" d="M58.8,41.8c-0.7,0-1.2-0.6-1.2-1.2V40c-1.5-0.5-2.5-1.9-2.5-3.5c0-0.7,0.6-1.2,1.2-1.2s1.2,0.6,1.2,1.2
						c0,0.7,0.5,1.2,1.2,1.2c0.7,0,1.2-0.5,1.2-1.2c0-0.7-0.5-1.2-1.2-1.2c-0.1,0-0.2,0-0.2,0c-1.9-0.1-3.5-1.7-3.5-3.7
						c0-1.6,1-3,2.5-3.5l0-0.8c0-0.7,0.6-1.2,1.2-1.2c0.7,0,1.2,0.6,1.2,1.2v0.8c1.5,0.5,2.5,1.9,2.5,3.5c0,0.7-0.6,1.2-1.2,1.2
						S60,32.3,60,31.6c0-0.7-0.5-1.2-1.2-1.2c-0.7,0-1.2,0.5-1.2,1.2c0,0.7,0.5,1.2,1.2,1.2c0.1,0,0.2,0,0.2,0
						c1.9,0.1,3.4,1.7,3.4,3.7c0,1.6-1,3-2.5,3.5l0,0.6C60,41.3,59.5,41.8,58.8,41.8z"/>
				</g>
			</g>
		</g>
	</g>
	<g>
		<g>
			<path fill="#CC3333" d="M35.3,32.6c0,0.4,0,0.7-0.1,1.1h-0.3C35.1,33.3,35.2,33,35.3,32.6z"/>
		</g>
		<g>
			<path fill="#CC3333" d="M48.5,39.5l-8.1-8.1c-0.2-0.2-0.6-0.4-0.9-0.4H34c-0.1,0-0.2,0-0.3,0c0,0,0,0,0,0c-0.1,0-0.1,0-0.2,0.1
				c0,0,0,0,0,0c-0.1,0-0.1,0-0.2,0.1c0,0,0,0,0,0c0,0-0.1,0-0.1,0.1c-0.1,0-0.1,0.1-0.1,0.1c0,0,0,0,0,0c-0.1,0-0.1,0.1-0.1,0.1
				c0,0,0,0,0,0c0,0,0,0,0,0c0,0.1-0.1,0.1-0.1,0.2c0,0.1-0.1,0.1-0.1,0.2c-0.4,0.3-2.1,0.9-4.6,0.9c-2.5,0-4.2-0.5-4.6-0.9
				c0-0.1,0-0.1-0.1-0.1c0-0.1-0.1-0.2-0.1-0.3c0,0,0-0.1-0.1-0.1c0,0-0.1-0.1-0.1-0.1c0,0,0,0,0,0c-0.1-0.1-0.1-0.1-0.2-0.1
				c-0.1,0-0.1-0.1-0.2-0.1c0,0,0,0-0.1,0c-0.1,0-0.1,0-0.2-0.1c0,0,0,0,0,0c-0.1,0-0.2,0-0.3,0h-5.5c-0.3,0-0.7,0.1-0.9,0.4
				l-8.1,8.1c-0.5,0.5-0.5,1.3,0,1.8l5.7,5.7c0.5,0.5,1.3,0.5,1.8,0l0.2-0.2v20c0,0.7,0.6,1.3,1.3,1.3h22.8c0.7,0,1.3-0.6,1.3-1.3
				v-20L41,47c0.5,0.5,1.3,0.5,1.8,0l5.7-5.7C49,40.8,49,40,48.5,39.5z M28.1,35.6c1.2,0,2.5-0.1,3.6-0.4c-0.8,1-2.1,1.7-3.6,1.7
				c-1.4,0-2.7-0.7-3.6-1.7C25.6,35.5,26.9,35.6,28.1,35.6z M41.9,44.3l-1.5-1.5c-0.4-0.4-0.9-0.5-1.4-0.3c-0.5,0.2-0.8,0.7-0.8,1.2
				v21.8H18V43.7c0-0.5-0.3-1-0.8-1.2c-0.5-0.2-1.1-0.1-1.4,0.3l-1.5,1.5l-3.8-3.8l6.8-6.8H21c-0.1-0.4-0.1-0.7-0.1-1.1
				c0,0.4,0.2,0.8,0.5,1.1H21c0.6,3.3,3.5,5.9,7.1,5.9s6.5-2.5,7.1-5.9h-0.3c0.3-0.3,0.4-0.7,0.5-1.1c0,0.4,0,0.7-0.1,1.1H39
				l6.8,6.8L41.9,44.3z"/>
			<path fill="#CC3333" d="M35.3,32.6c0,0.4,0,0.7-0.1,1.1h-0.3C35.1,33.3,35.2,33,35.3,32.6z"/>
		</g>
		<g>
			<path fill="#CC3333" d="M21.4,33.6H21c-0.1-0.4-0.1-0.7-0.1-1.1C21,33,21.1,33.3,21.4,33.6z"/>
		</g>
		<g>
			<path fill="#CC3333" d="M21.4,33.6H21c-0.1-0.4-0.1-0.7-0.1-1.1C21,33,21.1,33.3,21.4,33.6z"/>
		</g>
		<g>
			<path fill="#CC3333" d="M32.2,49.7c-0.1,0-0.3,0-0.4-0.1l-2.5-0.8c-0.5-0.2-0.9-0.7-0.9-1.2v-4.9c0-0.7,0.6-1.3,1.3-1.3h4.9
				c0.7,0,1.3,0.6,1.3,1.3v4.9c0,0.6-0.4,1.1-0.9,1.2l-2.5,0.8C32.4,49.6,32.3,49.7,32.2,49.7z M31,46.6l1.2,0.4l1.2-0.4v-2.6H31
				V46.6z"/>
		</g>
	</g>
</g>
</svg>
