<?xml version="1.0" encoding="utf-8"?>
<!-- Generator: Adobe Illustrator 17.0.0, SVG Export Plug-In . SVG Version: 6.00 Build 0)  -->
<!DOCTYPE svg PUBLIC "-//W3C//DTD SVG 1.1//EN" "http://www.w3.org/Graphics/SVG/1.1/DTD/svg11.dtd">
<svg version="1.1" id="Capa_1" xmlns="http://www.w3.org/2000/svg" xmlns:xlink="http://www.w3.org/1999/xlink" x="0px" y="0px"
	 width="32px" height="32px" viewBox="290 380 32 32" enable-background="new 290 380 32 32" xml:space="preserve">
<path fill="#C6C6C6" d="M306,408.279c-6.728,0-12.279-5.551-12.279-12.279s5.551-12.279,12.279-12.279s12.279,5.551,12.279,12.279
	S312.896,408.279,306,408.279 M306,411.475c8.578,0,15.475-6.896,15.475-15.475s-6.896-15.475-15.475-15.475
	s-15.475,6.896-15.475,15.475S297.422,411.475,306,411.475L306,411.475z M300.954,392.972c-0.673,0.673-0.673,1.682,0,2.187
	l3.869,3.869c0.673,0.673,1.682,0.673,2.187,0l3.869-3.869c0.673-0.673,0.673-1.682,0-2.187c-0.673-0.673-1.682-0.673-2.187,0
	L306,395.664l-2.691-2.691c-0.336-0.336-0.673-0.505-1.177-0.505S301.29,392.636,300.954,392.972z"/>
</svg>
