<?xml version="1.0" encoding="utf-8"?>
<!-- Generator: Adobe Illustrator 18.1.1, SVG Export Plug-In . SVG Version: 6.00 Build 0)  -->
<!DOCTYPE svg PUBLIC "-//W3C//DTD SVG 1.1//EN" "http://www.w3.org/Graphics/SVG/1.1/DTD/svg11.dtd">
<svg version="1.1" id="object" xmlns="http://www.w3.org/2000/svg" xmlns:xlink="http://www.w3.org/1999/xlink" x="0px" y="0px"
	 viewBox="201 0 558 560" enable-background="new 201 0 558 560" xml:space="preserve">
<path fill="#C2C2C2" d="M471.3,365.2c2.8,2.8,5.6,3.5,9.1,3.5s6.3-1.4,9.1-3.5l114.5-114.5c4.9-4.9,4.9-13.3,0-18.2
	c-4.9-4.9-13.3-4.9-18.2,0L480.3,338L374.9,232.5c-4.9-4.9-13.3-4.9-18.2,0s-4.9,13.3,0,18.2L471.3,365.2z"/>
<path fill="#C2C2C2" d="M213.6,280c0,144.5,122.2,266.7,266.7,266.7S747.1,424.5,747.1,280S624.9,13.3,480.3,13.3
	S213.6,135.5,213.6,280 M480.3,38.4c130.6,0,241.6,110.3,241.6,241.6c0,130.6-110.3,241.6-241.6,241.6S238.8,410.6,238.8,280
	C238.8,148.7,349.1,38.4,480.3,38.4"/>
<rect x="213.6" y="13.3" fill="none" width="533.5" height="533.5"/>
</svg>
