<?xml version="1.0" encoding="utf-8"?>
<!-- Generator: Adobe Illustrator 18.1.1, SVG Export Plug-In . SVG Version: 6.00 Build 0)  -->
<!DOCTYPE svg PUBLIC "-//W3C//DTD SVG 1.1//EN" "http://www.w3.org/Graphics/SVG/1.1/DTD/svg11.dtd">
<svg version="1.1" id="object" xmlns="http://www.w3.org/2000/svg" xmlns:xlink="http://www.w3.org/1999/xlink" x="0px" y="0px"
	 viewBox="-1 89 612 612" enable-background="new -1 89 612 612" xml:space="preserve">
<rect x="407.7" y="101" fill="none" width="590.1" height="590.1"/>
<path fill="#C6C6C6" d="M305,152.2c133,0,242.8,109.8,242.8,242.8S438,637.8,305,637.8S62.2,528,62.2,395
	C62.2,262,168.6,152.2,305,152.2 M305,89C135.4,89-1,225.4-1,395s136.4,306,306,306s306-136.4,306-306C611,225.4,474.6,89,305,89
	L305,89z M404.8,454.9c13.3-13.3,13.3-33.3,0-43.2l-76.5-76.5c-13.3-13.3-33.3-13.3-43.2,0l-76.5,76.5c-13.3,13.3-13.3,33.3,0,43.2
	c13.3,13.3,33.3,13.3,43.2,0l53.2-53.2l53.2,53.2c6.7,6.7,13.3,10,23.3,10C391.5,464.8,398.1,461.5,404.8,454.9z"/>
</svg>
