<?xml version="1.0" encoding="utf-8"?>
<!-- Generator: Adobe Illustrator 18.1.1, SVG Export Plug-In . SVG Version: 6.00 Build 0)  -->
<!DOCTYPE svg PUBLIC "-//W3C//DTD SVG 1.1//EN" "http://www.w3.org/Graphics/SVG/1.1/DTD/svg11.dtd">
<svg version="1.1" id="object" xmlns="http://www.w3.org/2000/svg" xmlns:xlink="http://www.w3.org/1999/xlink" x="0px" y="0px"
	 viewBox="398 0 562 560" enable-background="new 398 0 562 560" xml:space="preserve">
<path fill="#7C7C7C" d="M687.1,193.4c-2.8-2.8-5.7-3.5-9.2-3.5s-6.4,1.4-9.2,3.5L552.3,309.7c-4.9,4.9-4.9,13.5,0,18.4
	s13.5,4.9,18.4,0L677.8,221l107.1,107.1c4.9,4.9,13.5,4.9,18.4,0s4.9-13.5,0-18.4L687.1,193.4z"/>
<path fill="#7C7C7C" d="M948.8,280c0-146.8-124.1-270.9-270.9-270.9s-271,124-271,270.9S531,550.9,677.8,550.9
	S948.8,426.8,948.8,280 M677.9,525.3c-132.6,0-245.4-112-245.4-245.3c0-132.6,112-245.4,245.4-245.4S923.3,147.4,923.3,280
	C923.3,413.3,811.2,525.3,677.9,525.3"/>
<rect x="406.9" y="9.1" fill="none" width="541.9" height="541.9"/>
</svg>
