<?xml version="1.0" encoding="utf-8"?>
<!-- Generator: Adobe Illustrator 19.2.0, SVG Export Plug-In . SVG Version: 6.00 Build 0)  -->
<svg version="1.1" id="Capa_1" xmlns="http://www.w3.org/2000/svg" xmlns:xlink="http://www.w3.org/1999/xlink" x="0px" y="0px"
	 viewBox="0 0 18.4 18.4" style="enable-background:new 0 0 18.4 18.4;" xml:space="preserve">
<style type="text/css">
	.st0{fill:#C6C6C6;}
</style>
<path class="st0" d="M9.2,16.5c-4,0-7.3-3.3-7.3-7.3s3.3-7.3,7.3-7.3s7.3,3.3,7.3,7.3S13.3,16.5,9.2,16.5 M9.2,18.4
	c5.1,0,9.2-4.1,9.2-9.2S14.3,0,9.2,0C4.1,0,0,4.1,0,9.2C0,14.3,4.1,18.4,9.2,18.4L9.2,18.4z M6.2,7.4c-0.4,0.4-0.4,1,0,1.3L8.5,11
	c0.4,0.4,1,0.4,1.3,0l2.3-2.3c0.4-0.4,0.4-1,0-1.3c-0.4-0.4-1-0.4-1.3,0L9.2,9L7.6,7.4C7.4,7.2,7.2,7.1,6.9,7.1
	C6.6,7.1,6.4,7.2,6.2,7.4z"/>
</svg>
