<?xml version="1.0" encoding="utf-8"?>
<!-- Generator: Adobe Illustrator 17.0.0, SVG Export Plug-In . SVG Version: 6.00 Build 0)  -->
<!DOCTYPE svg PUBLIC "-//W3C//DTD SVG 1.1//EN" "http://www.w3.org/Graphics/SVG/1.1/DTD/svg11.dtd">
<svg version="1.1" id="Capa_1" xmlns="http://www.w3.org/2000/svg" xmlns:xlink="http://www.w3.org/1999/xlink" x="0px" y="0px"
	 width="32px" height="32px" viewBox="290 380 32 32" enable-background="new 290 380 32 32" xml:space="preserve">
<path fill="#C6C6C6" d="M306,383.721c6.726,0,12.279,5.553,12.279,12.279s-5.553,12.279-12.279,12.279s-12.279-5.553-12.279-12.279
	S299.102,383.721,306,383.721 M306,380.525c-8.577,0-15.475,6.898-15.475,15.475s6.898,15.475,15.475,15.475
	s15.475-6.898,15.475-15.475S314.577,380.525,306,380.525L306,380.525z M311.047,399.029c0.673-0.673,0.673-1.684,0-2.185
	l-3.869-3.869c-0.673-0.673-1.684-0.673-2.185,0l-3.869,3.869c-0.673,0.673-0.673,1.684,0,2.185c0.673,0.673,1.684,0.673,2.185,0
	l2.69-2.69l2.69,2.69c0.339,0.339,0.673,0.506,1.178,0.506C310.374,399.53,310.708,399.363,311.047,399.029z"/>
</svg>
