<?xml version="1.0" encoding="utf-8"?>
<!-- Generator: Adobe Illustrator 19.2.0, SVG Export Plug-In . SVG Version: 6.00 Build 0)  -->
<svg version="1.1" id="Capa_1" xmlns="http://www.w3.org/2000/svg" xmlns:xlink="http://www.w3.org/1999/xlink" x="0px" y="0px"
	 viewBox="0 0 225.4 193.6" style="enable-background:new 0 0 225.4 193.6;" xml:space="preserve">
<style type="text/css">
	.st0{fill:#D93434;}
</style>
<g>
	<g>
		<g>
			<g>
				<g>
					<path class="st0" d="M0,8.1L45.2,0l14.1,83.6l-45.7,7.5L0,8.1z M7.6,13.1l11.5,71l33.2-6.2L40.2,7.3L7.6,13.1z M19.7,35.7
						c-2.3-1.8-3.8-4.4-4.3-7.4c-0.5-3.1,0.2-6.1,2-8.6c1.8-2.4,4.4-4,7.5-4.5c3.2-0.5,6.3,0.2,8.8,2.1c2.3,1.8,3.8,4.4,4.3,7.4
						c1,6.4-3.1,12.1-9.6,13.1C25.3,38.3,22.2,37.6,19.7,35.7z M29.5,23c-0.9-0.7-2.1-1-3.3-0.8s-2.2,0.8-2.9,1.7
						c-0.6,0.9-0.9,2.1-0.7,3.3c0.2,1.2,0.8,2.2,1.6,2.8l0,0c0.9,0.7,2.1,1,3.3,0.8s2.2-0.8,2.9-1.7c0.6-0.9,0.9-2.1,0.7-3.3
						S30.3,23.6,29.5,23z"/>
				</g>
				<g>
					<path class="st0" d="M150.8,104.9c-2.6-2-2.9-5.7-2.8-7.6l-2.2-24.6c-0.5-2.9-2.5-5.7-2.5-5.8l-1.7-1.2l7.9,0.4l3.6,1.1
						l2.2,1.5c0.3,0.2,2.2,1.8,2.8,5.3l2.5,26.5c-0.7,4.1-3.4,5.1-5,5.4c-1.2,0.2-2.2,0-2.2,0C152.5,105.9,151.6,105.5,150.8,104.9z
						"/>
				</g>
				<g>
					<path class="st0" d="M167.2,109.6c-2.5-1.9-3.2-6.5-3.6-9.1L161.2,74c-0.4-2.7-1.9-3.9-2-3.9c-0.5-1.7-0.5-1.8-1.4-2.5
						c5.2,0.1,8.7,1.2,9.2,1.3c1.3,0.4,2.4,1,3.4,1.7c4.2,3.2,3.8,8.3,3.7,8.4c-0.3,3.2,0,7.9,0.5,13.8c0.4,5.4,0.8,10.5,0.6,14.5
						c-0.6,2.1-1.5,3.2-2.8,3.3h-1.2C169.8,111,168.2,110.3,167.2,109.6z"/>
				</g>
				<g>
					<path class="st0" d="M41.7,16.5l39.4-7.2c0.5,0,10.7,0.1,19.2,0.4c1.5,0.1,37.2,3.2,84.6,36.3c0.4,0.2,1.8,1,3.7,2.4
						c4,3.1,10.8,9.8,11.2,20.2c0.6,5.3,3.2,32.4-4.9,41.7c-1.6,1.9-3.7,3.1-5.9,3.4c-2.6-0.1-4.9-0.9-6.8-2.4
						c-2.2-1.7-4.8-5.1-4.7-11.8c0-0.1-0.9-16.6-0.6-25.2c-0.5-1.1-1.3-2.2-2.4-3c-0.5-0.4-1.1-0.7-1.7-1
						c-1.6-0.8-15.2-7.5-30.2-8.1c-2.3,0.6-4.5,1.4-5.7,2.3c-1,0.7-5.8,4.6-10.4,12.4c-1.4,2.1-1.3,3.7,0.4,5.1l0.1,0.1
						c6.6,5.1,24.2,19.4,26.1,32l0,0c0.3,0.3,1.7,5.3-0.5,9.2c-0.9,1.5-2.6,3.3-6,3.9c-0.9,0.1-2.8,0.5-13.2-5.4l-18.1-10.4
						c-0.9-0.2-10-2.7-21.8-11.8c-10.3-7.8-19.5-18.3-27.6-31L51,71.5L41.7,16.5z M184.2,54c-1.4-1.1-2.5-1.7-2.7-1.8
						c-46.3-32.3-81.2-35.4-81.6-35.4c-7.4-0.3-16.3-0.4-18-0.4l-33.3,5.2l7.7,42.9l12.8-3l1.9,1.9c7.6,12.5,16.7,22.7,26.6,30.4
						c11.1,8.4,19.4,10.7,19.8,10.8l19.4,10.9c7.1,4.1,9.2,4.5,9.4,4.6c0.7-1.3,0.3-3.3,0-4.2c-1.8-11.2-20.2-25.5-22.2-27.1
						l-1.3-1.4l-0.2,0.3c-6-4.6-4.5-11.3-2.1-14.6c5.5-9.7,12.1-14.3,12.2-14.4c3.4-2.4,8.4-3.4,9.5-3.5c18.5,0.7,33.7,8.8,33.8,8.8
						c1,0.4,1.9,1,2.8,1.7c4.4,3.4,5.2,8.1,5.2,8.3c-0.3,8.7,0.6,25.2,0.6,25.4c0,4.1,1.2,5.9,2.2,6.7c1.6,0.5,2.1,0.3,2.8-0.5
						c5.3-6.2,4-29.1,3.1-36.6C192.4,61.4,187.2,56.3,184.2,54z"/>
				</g>
			</g>
		</g>
	</g>
	<path class="st0" d="M189.4,193.6c-19.9,0-36.2-16.1-36.4-35.8c-0.2-19.9,16-36.3,36.1-36.5l0,0c3.2,0,6.1,0.3,9.1,1
		c12.2,2.8,22.2,12.4,25.7,24.4c3.3,11.4,1.2,23.1-5.6,32.3c-6.8,9.2-17.2,14.5-28.5,14.6H189.4z M189,128.1
		c-16.4,0.2-29.6,13.5-29.4,29.7c0.2,16,13.5,29.1,29.7,29.1c2.1,0,3.8-0.2,5.6-0.5c11.2-2.1,20.6-11.4,22.9-22.5
		c1.8-8.9-0.3-18-6-24.9c-5.5-6.7-13.8-10.7-22.5-10.7v-0.3L189,128.1z"/>
	<g>
		<g>
			<path class="st0" d="M189.6,168.8c-2.4,0-4.4-1.5-4.4-3.5c0-1.5-1.3-2.6-2.6-2.6s-2.6,1.3-2.6,2.6c0,4.2,3.1,7.4,7.2,8.5v4.2
				c0,1.5,1.3,2.6,2.6,2.6s2.6-1.3,2.6-2.6v-4.2c4.2-1.1,7.2-4.4,7.2-8.5c0-6.1-4.8-8.8-8.5-10.8c-3.7-2-5.5-3.1-5.5-5.3
				c0-0.9,0.7-1.8,1.1-2c0.7-0.7,1.8-1.1,2.8-1.1l0,0c2.2,0,3.9,1.3,3.9,3.1c0,1.5,1.3,2.6,2.6,2.6c1.3,0,2.6-1.3,2.6-2.6
				c0-3.7-2.8-7-6.6-8.1v-4.2c0-1.5-1.3-2.6-2.6-2.6s-2.6,1.3-2.6,2.6v4.2c-1.3,0.4-2.6,1.1-3.7,2c-2,1.5-2.8,3.7-2.8,6.1
				c0,5.7,4.6,8.1,8.1,10.2c3.7,2,5.7,3.3,5.7,5.9C194,167.3,192,168.8,189.6,168.8z"/>
		</g>
	</g>
</g>
</svg>
