<?xml version="1.0" encoding="utf-8"?>
<!-- Generator: Adobe Illustrator 18.1.1, SVG Export Plug-In . SVG Version: 6.00 Build 0)  -->
<!DOCTYPE svg PUBLIC "-//W3C//DTD SVG 1.1//EN" "http://www.w3.org/Graphics/SVG/1.1/DTD/svg11.dtd">
<svg version="1.1" id="Capa_1" xmlns="http://www.w3.org/2000/svg" xmlns:xlink="http://www.w3.org/1999/xlink" x="0px" y="0px"
	 viewBox="0 0 48.9 39.6" enable-background="new 0 0 48.9 39.6" xml:space="preserve">
<g>
	<path fill="#cc0000" d="M22,13.8H3.8c-2.1,0-3.8,1.7-3.8,3.8v18.2c0,2.1,1.7,3.8,3.8,3.8H22c2.1,0,3.8-1.7,3.8-3.8V17.6
		C25.8,15.5,24.1,13.8,22,13.8z M23.6,35.8c0,0.9-0.7,1.6-1.6,1.6H3.8c-0.9,0-1.6-0.7-1.6-1.6V17.6c0-0.9,0.7-1.6,1.6-1.6H22
		c0.9,0,1.6,0.7,1.6,1.6V35.8z"/>
	<circle fill="#cc0000" cx="6.7" cy="20.6" r="2.2"/>
	<circle fill="#cc0000" cx="19.1" cy="20.6" r="2.2"/>
	<circle fill="#cc0000" cx="6.7" cy="32.9" r="2.2"/>
	<circle fill="#cc0000" cx="19.1" cy="32.9" r="2.2"/>
	<path fill="#cc0000" d="M48.7,19.7l-6-17.2C42.1,1,40.7,0,39.1,0c-0.4,0-0.9,0.1-1.3,0.2l-17.2,6c-1,0.3-1.7,1-2.2,1.9
		c-0.4,0.9-0.5,2-0.2,2.9l1.1,3.1c0.4,0.4,0.8,0.8,1.2,1.2c0.3-0.6,0.8-0.6,1.2-1.1l-1.4-4c-0.1-0.4-0.1-0.8,0.1-1.2
		c0.2-0.4,0.5-0.7,0.9-0.8l17.2-6c0.2-0.1,0.3-0.1,0.5-0.1c0.7,0,1.3,0.4,1.5,1.1l6,17.2c0.1,0.4,0.1,0.8-0.1,1.2
		c-0.2,0.4-0.5,0.7-0.9,0.8l-17.2,6c-0.8,0.3-1.7-0.2-2-1l-1-2.6c-0.3,0,0,2-0.4,2c0,0.8,0.1,1.7,0,2.5c0.7,0.9,1.8,1.4,2.9,1.4
		c0.4,0,0.9-0.1,1.3-0.2l17.2-6c1-0.3,1.7-1,2.2-1.9C48.9,21.7,49,20.7,48.7,19.7z"/>
	<circle fill="#cc0000" cx="25.6" cy="11.6" r="2.2"/>
	<circle fill="#cc0000" cx="37.3" cy="7.5" r="2.2"/>
	<circle fill="#cc0000" cx="29.7" cy="23.2" r="2.2"/>
	<circle fill="#cc0000" cx="12.9" cy="27.1" r="2.2"/>
	<circle fill="#cc0000" cx="41.3" cy="19.2" r="2.2"/>
</g>
</svg>
