<?xml version="1.0" encoding="utf-8"?>
<!-- Generator: Adobe Illustrator 18.1.1, SVG Export Plug-In . SVG Version: 6.00 Build 0)  -->
<!DOCTYPE svg PUBLIC "-//W3C//DTD SVG 1.1//EN" "http://www.w3.org/Graphics/SVG/1.1/DTD/svg11.dtd">
<svg version="1.1" id="Capa_1" xmlns="http://www.w3.org/2000/svg" xmlns:xlink="http://www.w3.org/1999/xlink" x="0px" y="0px"
	 viewBox="0 0 95.6 54.3" enable-background="new 0 0 95.6 54.3" xml:space="preserve">
<g>
	<defs>
		<rect id="SVGID_1_" y="0" width="95.6" height="54.3"/>
	</defs>
	<clipPath id="SVGID_2_">
		<use xlink:href="#SVGID_1_"  overflow="visible"/>
	</clipPath>
	<path clip-path="url(#SVGID_2_)" fill="#545454" d="M3.8,6.8v40.8c0,1.7,1.4,3,3,3h8.8c0.2-3.9,2.1-6.6,5.2-7.4
		c7.1-1.8,9.5-3.9,10.4-5.1c-0.6-0.4-1.1-0.9-1.6-1.5c-4.1-4.6-3.5-12.5-3.4-13.4c0.5-9.2,7.3-11.5,11.3-11.4
		c4-0.1,10.8,2.1,11.3,11.4c0.1,0.8,0.7,8.7-3.4,13.4c-0.4,0.5-0.9,0.9-1.4,1.3c0.7,1.1,3.1,3.4,10.5,5.2c3.1,0.8,5,3.4,5.2,7.4h8.8
		c1.7,0,3-1.4,3-3v-8.7c0-1,0.8-1.9,1.9-1.9c1,0,1.9,0.8,1.9,1.9v8.7c0,3.7-3,6.8-6.8,6.8H6.8c-3.7,0-6.8-3-6.8-6.8V6.8
		C0,3.1,3,0,6.8,0h39.5c1,0,1.9,0.8,1.9,1.9c0,1.1-0.8,1.9-1.9,1.9H6.8C5.1,3.8,3.8,5.2,3.8,6.8 M32.4,34.3c1.2,1.4,2.9,2,5,2.1h0.1
		c2.2,0,3.8-0.7,5-2.1c3.2-3.6,2.5-10.5,2.5-10.6v-0.1c-0.4-7.7-6.3-7.9-7.5-7.8h-0.1h-0.2c-1.6,0-6.9,0.6-7.2,7.8v0.1
		C29.9,23.8,29.2,30.7,32.4,34.3 M19.3,50.6h36.5c-0.1-1.6-0.7-3.3-2.4-3.7c-8.6-2.2-11.8-5.1-13-7.2c-0.9,0.2-1.9,0.4-2.9,0.4h-0.1
		h-0.1h-0.1h-0.1c-0.9,0-1.8-0.1-2.6-0.3c-1.2,2.1-4.4,5-12.9,7.1C20,47.3,19.5,49,19.3,50.6 M95.6,6.9v18.2c0,3.7-3,6.8-6.8,6.8
		H72.7l-8.5,8.2c-0.4,0.3-0.8,0.5-1.3,0.5c-0.2,0-0.5,0-0.7-0.2c-0.7-0.3-1.1-1-1.1-1.7v-6.9h-2c-3.7,0-6.8-3-6.8-6.8V6.8
		c0-3.7,3-6.8,6.8-6.8h29.8C92.5,0.1,95.6,3.1,95.6,6.9 M91.8,6.9c0-1.7-1.4-3-3-3H59c-1.7,0-3,1.4-3,3v18.2c0,1.7,1.4,3,3,3h3.8
		c1,0,1.9,0.8,1.9,1.9v4.3l5.9-5.7c0.3-0.3,0.8-0.5,1.3-0.5h16.9c1.7,0,3-1.4,3-3V6.9z M73.9,14.1c-1.3,0-2.4,1.1-2.4,2.4
		s1.1,2.4,2.4,2.4c1.3,0,2.4-1.1,2.4-2.4S75.2,14.1,73.9,14.1 M64.7,14.1c-1.3,0-2.4,1.1-2.4,2.4s1.1,2.4,2.4,2.4
		c1.3,0,2.4-1.1,2.4-2.4S66,14.1,64.7,14.1 M83.1,14.1c-1.3,0-2.4,1.1-2.4,2.4s1.1,2.4,2.4,2.4c1.3,0,2.4-1.1,2.4-2.4
		S84.4,14.1,83.1,14.1"/>
</g>
</svg>
