<?xml version="1.0" encoding="utf-8"?>
<!-- Generator: Adobe Illustrator 17.0.0, SVG Export Plug-In . SVG Version: 6.00 Build 0)  -->
<!DOCTYPE svg PUBLIC "-//W3C//DTD SVG 1.1//EN" "http://www.w3.org/Graphics/SVG/1.1/DTD/svg11.dtd">
<svg version="1.1" id="Capa_1" xmlns="http://www.w3.org/2000/svg" xmlns:xlink="http://www.w3.org/1999/xlink" x="0px" y="0px"
	 width="38px" height="20px" viewBox="287 386 38 20" enable-background="new 287 386 38 20" xml:space="preserve">
<g>
	<g>
		<defs>
			<rect id="SVGID_1_" x="288.531" y="386.078" width="34.937" height="19.844"/>
		</defs>
		<clipPath id="SVGID_2_">
			<use xlink:href="#SVGID_1_"  overflow="visible"/>
		</clipPath>
		<path clip-path="url(#SVGID_2_)" fill="#545454" d="M289.92,388.563v14.911c0,0.621,0.512,1.096,1.096,1.096h3.216
			c0.073-1.425,0.767-2.412,1.9-2.704c2.595-0.658,3.472-1.425,3.801-1.864c-0.219-0.146-0.402-0.329-0.585-0.548
			c-1.498-1.681-1.279-4.568-1.243-4.897c0.183-3.362,2.668-4.203,4.13-4.166c1.462-0.037,3.947,0.767,4.13,4.166
			c0.037,0.292,0.256,3.179-1.243,4.897c-0.146,0.183-0.329,0.329-0.512,0.475c0.256,0.402,1.133,1.243,3.837,1.9
			c1.133,0.292,1.827,1.243,1.9,2.704h3.216c0.621,0,1.096-0.512,1.096-1.096v-3.179c0-0.365,0.292-0.694,0.694-0.694
			c0.365,0,0.694,0.292,0.694,0.694v3.179c0,1.352-1.096,2.485-2.485,2.485h-22.549c-1.352,0-2.485-1.096-2.485-2.485v-14.874
			c0-1.352,1.096-2.485,2.485-2.485h14.435c0.365,0,0.694,0.292,0.694,0.694c0,0.402-0.292,0.694-0.694,0.694h-14.435
			C290.395,387.467,289.92,387.978,289.92,388.563 M300.372,398.613c0.439,0.512,1.06,0.731,1.827,0.767h0.037
			c0.804,0,1.389-0.256,1.827-0.767c1.169-1.316,0.914-3.837,0.914-3.874v-0.037c-0.146-2.814-2.302-2.887-2.741-2.851h-0.037
			h-0.073c-0.585,0-2.522,0.219-2.631,2.851v0.037C299.458,394.776,299.203,397.297,300.372,398.613 M295.585,404.57h13.339
			c-0.037-0.585-0.256-1.206-0.877-1.352c-3.143-0.804-4.312-1.864-4.751-2.631c-0.329,0.073-0.694,0.146-1.06,0.146h-0.037h-0.037
			h-0.037h-0.037c-0.329,0-0.658-0.037-0.95-0.11c-0.439,0.767-1.608,1.827-4.714,2.595
			C295.84,403.364,295.658,403.985,295.585,404.57 M323.469,388.6v6.651c0,1.352-1.096,2.485-2.485,2.485H315.1l-3.106,2.997
			c-0.146,0.11-0.292,0.183-0.475,0.183c-0.073,0-0.183,0-0.256-0.073c-0.256-0.11-0.402-0.365-0.402-0.621v-2.522h-0.731
			c-1.352,0-2.485-1.096-2.485-2.485v-6.651c0-1.352,1.096-2.485,2.485-2.485h10.891C322.336,386.114,323.469,387.211,323.469,388.6
			 M322.08,388.6c0-0.621-0.512-1.096-1.096-1.096h-10.891c-0.621,0-1.096,0.512-1.096,1.096v6.651c0,0.621,0.512,1.096,1.096,1.096
			h1.389c0.365,0,0.694,0.292,0.694,0.694v1.571l2.156-2.083c0.11-0.11,0.292-0.183,0.475-0.183h6.176
			c0.621,0,1.096-0.512,1.096-1.096V388.6z M315.538,391.231c-0.475,0-0.877,0.402-0.877,0.877s0.402,0.877,0.877,0.877
			c0.475,0,0.877-0.402,0.877-0.877S316.013,391.231,315.538,391.231 M312.176,391.231c-0.475,0-0.877,0.402-0.877,0.877
			s0.402,0.877,0.877,0.877c0.475,0,0.877-0.402,0.877-0.877S312.651,391.231,312.176,391.231 M318.901,391.231
			c-0.475,0-0.877,0.402-0.877,0.877s0.402,0.877,0.877,0.877c0.475,0,0.877-0.402,0.877-0.877S319.376,391.231,318.901,391.231"/>
	</g>
</g>
</svg>
