<?xml version="1.0" encoding="utf-8"?>
<!-- Generator: Adobe Illustrator 17.0.0, SVG Export Plug-In . SVG Version: 6.00 Build 0)  -->
<!DOCTYPE svg PUBLIC "-//W3C//DTD SVG 1.1//EN" "http://www.w3.org/Graphics/SVG/1.1/DTD/svg11.dtd">
<svg version="1.1" id="Capa_1" xmlns="http://www.w3.org/2000/svg" xmlns:xlink="http://www.w3.org/1999/xlink" x="0px" y="0px"
	 width="127px" height="35px" viewBox="242.5 378.5 127 35" enable-background="new 242.5 378.5 127 35" xml:space="preserve">
<g>
	<g>
		<path fill="#211915" d="M251.729,412.601h-4.783v-33.203h3.869l10.974,16.109l10.974-16.109h3.799v33.203h-4.713v-23.354
			l-8.723,12.873h-2.673l-8.723-12.873V412.601z"/>
	</g>
	<g>
		<path fill="#CC0000" d="M292.388,379.399c7.175,0,10.763,5.557,10.763,11.114c0,5.557-3.588,11.044-10.763,11.044h-7.316v11.044
			h-4.854v-33.203H292.388z M292.388,396.844c4.01,0,6.05-3.165,6.05-6.261c0-3.165-1.97-6.331-6.05-6.331h-7.316v12.592H292.388z"
			/>
		<path fill="#CC0000" d="M309.412,383.971c3.025-3.095,7.316-4.994,11.959-4.994c4.713,0,8.934,1.97,12.029,4.994
			c2.954,3.095,4.924,7.316,4.924,12.029s-1.97,8.934-4.924,12.029c-3.095,3.165-7.316,4.994-12.029,4.994
			c-4.643,0-8.934-1.899-11.959-4.994c-2.954-3.095-4.924-7.316-4.924-12.029S306.457,387.066,309.412,383.971z M329.952,387.418
			c-2.251-2.251-5.346-3.588-8.582-3.588s-6.331,1.407-8.512,3.588c-2.181,2.181-3.588,5.205-3.588,8.582s1.407,6.401,3.588,8.582
			c2.181,2.251,5.205,3.588,8.512,3.588s6.331-1.407,8.582-3.588c2.11-2.181,3.517-5.205,3.517-8.582
			S332.133,389.599,329.952,387.418z"/>
		<path fill="#CC0000" d="M359.426,387.981c-0.633-2.954-3.869-4.291-6.753-4.221c-2.251,0.07-4.713,0.774-6.05,2.532
			c-0.633,0.844-0.914,1.97-0.774,3.095c0.211,3.447,4.01,3.869,7.527,4.15c4.572,0.563,10.2,1.759,11.466,7.034
			c0.141,0.703,0.211,1.548,0.211,2.181c0,6.401-6.331,10.13-12.31,10.13c-5.135,0-11.325-3.025-11.959-8.934l-0.07-0.914
			l4.854-0.07l0.07,0.703v-0.211c0.352,3.095,4.08,4.713,7.175,4.713c3.588,0,7.456-1.97,7.456-5.417
			c0-0.352-0.07-0.703-0.141-1.126c-0.563-2.532-4.01-2.954-7.316-3.306c-5.205-0.492-11.255-1.688-11.747-8.582v0.07
			c-0.211-2.251,0.352-4.432,1.829-6.331c2.251-2.884,6.19-4.432,10.059-4.432c5.135,0,10.411,2.673,11.325,8.723L359.426,387.981z"
			/>
	</g>
</g>
</svg>
