<?xml version="1.0" encoding="utf-8"?>
<!-- Generator: Adobe Illustrator 17.0.0, SVG Export Plug-In . SVG Version: 6.00 Build 0)  -->
<!DOCTYPE svg PUBLIC "-//W3C//DTD SVG 1.1//EN" "http://www.w3.org/Graphics/SVG/1.1/DTD/svg11.dtd">
<svg version="1.1" id="Capa_1" xmlns="http://www.w3.org/2000/svg" xmlns:xlink="http://www.w3.org/1999/xlink" x="0px" y="0px"
	 width="108px" height="108px" viewBox="252 342 108 108" enable-background="new 252 342 108 108" xml:space="preserve">
<g>
	<path fill="#BE1717" d="M252.987,395.82c0-29.313,23.762-53.013,53.013-53.013c17.276,0,32.556,8.233,42.286,20.956l-21.455,21.455
		c-3.867-7.547-11.725-12.723-20.831-12.723c-12.91,0-23.326,10.478-23.326,23.326c0,12.848,10.478,23.326,23.326,23.326
		c9.106,0,16.964-5.177,20.831-12.723l21.455,21.455c-9.667,12.723-25.01,20.956-42.286,20.956
		C276.749,448.896,252.987,425.133,252.987,395.82"/>
	<path fill="#1C1C1B" d="M288.911,401.87h3.306l0.374-3.992c0.062-0.374,0.062-0.748,0.062-1.123h0.125
		c0,0.374,0.125,0.748,0.187,1.185l1.185,3.929h1.996l1.372-4.179c0.125-0.312,0.187-0.624,0.249-0.936h0.062l0.437,5.114h3.306
		l-1.559-9.293h-3.43l-1.06,3.68c-0.125,0.374-0.187,0.811-0.249,1.247h-0.062l-1.31-4.865h-3.493L288.911,401.87z"/>
	<path fill="#1C1C1B" d="M307.871,392.515v5.177c0,0.748,0,1.372-0.936,1.372c-0.873,0-0.936-0.624-0.936-1.372v-5.177h-3.368v5.488
		c0,2.744,1.684,3.929,4.303,3.929c2.619,0,4.303-1.247,4.303-3.929v-5.488H307.871z"/>
	<polygon fill="#1C1C1B" points="312.798,401.87 318.973,401.87 318.973,398.876 316.166,398.876 316.166,392.515 312.798,392.515 	
		"/>
	<polygon fill="#1C1C1B" points="318.91,395.571 320.781,395.508 320.781,401.87 324.149,401.87 324.149,395.508 326.02,395.571 
		326.02,392.515 318.91,392.515 	"/>
	<rect x="326.956" y="392.515" fill="#1C1C1B" width="3.368" height="9.293"/>
	<path fill="#BE1717" d="M336.436,399.562c-0.249,0.062-0.686,0.187-1.123,0.187c-0.624,0-1.06-0.561-1.06-1.497
		c0-1.933,1.123-3.368,2.245-3.368c0.187,0,0.437,0.062,0.686,0.062l0.686-2.245c-0.249-0.125-0.624-0.187-1.247-0.187
		c-2.807,0-5.052,2.557-5.052,6.112c0,1.622,0.936,3.306,2.994,3.306c0.811,0,1.434-0.125,1.684-0.249L336.436,399.562z"/>
	<path fill="#BE1717" d="M344.481,401.87c0-0.998,0.187-2.869,0.374-3.867l0.998-5.052c-0.624-0.249-1.684-0.437-2.744-0.437
		c-4.116,0-5.426,3.867-5.426,6.673c0,1.559,0.624,2.807,2.121,2.807c0.748,0,1.622-0.499,2.308-1.622h0.062
		c0,0.499-0.062,0.998-0.062,1.434h2.37V401.87z M342.236,397.442c-0.312,1.622-0.748,2.308-1.247,2.308
		c-0.561,0-0.624-0.561-0.624-1.185c0-1.06,0.686-3.992,1.996-3.992c0.125,0,0.249,0,0.437,0.062L342.236,397.442z"/>
	<path fill="#BE1717" d="M347.662,392.702l-1.622,8.544c-0.374,1.809-0.811,2.245-1.497,2.245c-0.125,0-0.249,0-0.437-0.062
		l-0.249,2.058c0.374,0.062,0.748,0.125,1.123,0.125c1.372,0,2.432-0.561,2.931-1.434c0.374-0.624,0.624-1.434,0.998-3.181
		l1.559-8.295H347.662L347.662,392.702z M349.408,391.766c0.811,0,1.497-0.624,1.497-1.684c0-0.686-0.374-1.372-1.247-1.372
		c-0.936,0-1.497,0.873-1.497,1.622C348.161,391.143,348.535,391.766,349.408,391.766L349.408,391.766z"/>
	<path fill="#BE1717" d="M357.641,401.87c0-0.998,0.187-2.869,0.374-3.867l0.998-5.052c-0.624-0.249-1.684-0.437-2.744-0.437
		c-4.116,0-5.426,3.867-5.426,6.673c0,1.559,0.624,2.807,2.121,2.807c0.748,0,1.622-0.499,2.308-1.622h0.062
		c0,0.499-0.062,0.998-0.062,1.434h2.37V401.87z M355.396,397.442c-0.312,1.622-0.748,2.308-1.247,2.308
		c-0.561,0-0.624-0.561-0.624-1.185c0-1.06,0.686-3.992,1.996-3.992c0.062,0,0.249,0,0.437,0.062L355.396,397.442z"/>
</g>
</svg>
