<?xml version="1.0" encoding="utf-8"?>
<!-- Generator: Adobe Illustrator 18.1.1, SVG Export Plug-In . SVG Version: 6.00 Build 0)  -->
<!DOCTYPE svg PUBLIC "-//W3C//DTD SVG 1.1//EN" "http://www.w3.org/Graphics/SVG/1.1/DTD/svg11.dtd">
<svg version="1.1" id="Capa_1" xmlns="http://www.w3.org/2000/svg" xmlns:xlink="http://www.w3.org/1999/xlink" x="0px" y="0px"
	 viewBox="0 0 170 170.1" enable-background="new 0 0 170 170.1" xml:space="preserve">
<g>
	<path fill="#BE1717" d="M0,85c0-47,38.1-85,85-85c27.7,0,52.2,13.2,67.8,33.6L118.4,68C112.2,55.9,99.6,47.6,85,47.6
		c-20.7,0-37.4,16.8-37.4,37.4s16.8,37.4,37.4,37.4c14.6,0,27.2-8.3,33.4-20.4l34.4,34.4c-15.5,20.4-40.1,33.6-67.8,33.6
		C38.1,170.1,0,132,0,85"/>
	<path fill-rule="evenodd" clip-rule="evenodd" fill="#1C1C1B" d="M57.6,94.7h5.3l0.6-6.4c0.1-0.6,0.1-1.2,0.1-1.8h0.2
		c0,0.6,0.2,1.2,0.3,1.9l1.9,6.3h3.2l2.2-6.7c0.2-0.5,0.3-1,0.4-1.5h0.1l0.7,8.2h5.3l-2.5-14.9h-5.5l-1.7,5.9
		c-0.2,0.6-0.3,1.3-0.4,2h-0.1l-2.1-7.8h-5.6L57.6,94.7z"/>
	<path fill-rule="evenodd" clip-rule="evenodd" fill="#1C1C1B" d="M88,79.7v8.3c0,1.2,0,2.2-1.5,2.2c-1.4,0-1.5-1-1.5-2.2v-8.3h-5.4
		v8.8c0,4.4,2.7,6.3,6.9,6.3c4.2,0,6.9-2,6.9-6.3v-8.8H88z"/>
	<polygon fill-rule="evenodd" clip-rule="evenodd" fill="#1C1C1B" points="95.9,94.7 105.8,94.7 105.8,89.9 101.3,89.9 101.3,79.7 
		95.9,79.7 	"/>
	<polygon fill-rule="evenodd" clip-rule="evenodd" fill="#1C1C1B" points="105.7,84.6 108.7,84.5 108.7,94.7 114.1,94.7 114.1,84.5 
		117.1,84.6 117.1,79.7 105.7,79.7 	"/>
	<rect x="118.6" y="79.7" fill-rule="evenodd" clip-rule="evenodd" fill="#1C1C1B" width="5.4" height="14.9"/>
	<path fill-rule="evenodd" clip-rule="evenodd" fill="#BE1717" d="M133.8,91c-0.4,0.1-1.1,0.3-1.8,0.3c-1,0-1.7-0.9-1.7-2.4
		c0-3.1,1.8-5.4,3.6-5.4c0.3,0,0.7,0.1,1.1,0.1l1.1-3.6c-0.4-0.2-1-0.3-2-0.3c-4.5,0-8.1,4.1-8.1,9.8c0,2.6,1.5,5.3,4.8,5.3
		c1.3,0,2.3-0.2,2.7-0.4L133.8,91z"/>
	<path fill-rule="evenodd" clip-rule="evenodd" fill="#BE1717" d="M146.7,94.7c0-1.6,0.3-4.6,0.6-6.2l1.6-8.1
		c-1-0.4-2.7-0.7-4.4-0.7c-6.6,0-8.7,6.2-8.7,10.7c0,2.5,1,4.5,3.4,4.5c1.2,0,2.6-0.8,3.7-2.6h0.1c0,0.8-0.1,1.6-0.1,2.3H146.7z
		 M143.1,87.6c-0.5,2.6-1.2,3.7-2,3.7c-0.9,0-1-0.9-1-1.9c0-1.7,1.1-6.4,3.2-6.4c0.2,0,0.4,0,0.7,0.1L143.1,87.6z"/>
	<path fill-rule="evenodd" clip-rule="evenodd" fill="#BE1717" d="M151.8,80l-2.6,13.7c-0.6,2.9-1.3,3.6-2.4,3.6
		c-0.2,0-0.4,0-0.7-0.1l-0.4,3.3c0.6,0.1,1.2,0.2,1.8,0.2c2.2,0,3.9-0.9,4.7-2.3c0.6-1,1-2.3,1.6-5.1l2.5-13.3H151.8z M154.6,78.5
		c1.3,0,2.4-1,2.4-2.7c0-1.1-0.6-2.2-2-2.2c-1.5,0-2.4,1.4-2.4,2.6C152.6,77.5,153.2,78.5,154.6,78.5L154.6,78.5z"/>
	<path fill-rule="evenodd" clip-rule="evenodd" fill="#BE1717" d="M167.8,94.7c0-1.6,0.3-4.6,0.6-6.2l1.6-8.1
		c-1-0.4-2.7-0.7-4.4-0.7c-6.6,0-8.7,6.2-8.7,10.7c0,2.5,1,4.5,3.4,4.5c1.2,0,2.6-0.8,3.7-2.6h0.1c0,0.8-0.1,1.6-0.1,2.3H167.8z
		 M164.2,87.6c-0.5,2.6-1.2,3.7-2,3.7c-0.9,0-1-0.9-1-1.9c0-1.7,1.1-6.4,3.2-6.4c0.1,0,0.4,0,0.7,0.1L164.2,87.6z"/>
</g>
</svg>
