<?xml version="1.0" encoding="utf-8"?>
<!-- Generator: Adobe Illustrator 18.1.1, SVG Export Plug-In . SVG Version: 6.00 Build 0)  -->
<!DOCTYPE svg PUBLIC "-//W3C//DTD SVG 1.1//EN" "http://www.w3.org/Graphics/SVG/1.1/DTD/svg11.dtd">
<svg version="1.1" id="Capa_1" xmlns="http://www.w3.org/2000/svg" xmlns:xlink="http://www.w3.org/1999/xlink" x="0px" y="0px"
	 viewBox="0 0 90 90" enable-background="new 0 0 90 90" xml:space="preserve">
<path fill="#FFFFFF" d="M88.4,80.4L70.9,62.9c11.6-15.4,10.4-37.4-3.7-51.4C59.5,3.8,49.5,0,39.4,0S19.2,3.8,11.5,11.5
	c-15.4,15.4-15.4,40.3,0,55.7c7.7,7.7,17.8,11.5,27.8,11.5c8.3,0,16.6-2.7,23.5-7.9l17.5,17.5c1.1,1.1,2.5,1.6,4,1.6s2.9-0.5,4-1.6
	C90.5,86.2,90.5,82.6,88.4,80.4z M19.5,59.3c-5.3-5.3-8.2-12.4-8.2-19.9s2.9-14.6,8.2-19.9c5.3-5.3,12.4-8.2,19.9-8.2
	s14.6,2.9,19.9,8.2c5.3,5.3,8.2,12.4,8.2,19.9S64.6,54,59.3,59.3c-5.3,5.3-12.4,8.2-19.9,8.2S24.8,64.6,19.5,59.3z"/>
</svg>
