<?xml version="1.0" encoding="utf-8"?>
<!-- Generator: Adobe Illustrator 18.1.1, SVG Export Plug-In . SVG Version: 6.00 Build 0)  -->
<!DOCTYPE svg PUBLIC "-//W3C//DTD SVG 1.1//EN" "http://www.w3.org/Graphics/SVG/1.1/DTD/svg11.dtd">
<svg version="1.1" id="Capa_1" xmlns="http://www.w3.org/2000/svg" xmlns:xlink="http://www.w3.org/1999/xlink" x="0px" y="0px"
	 viewBox="0 0 167.9 48.4" enable-background="new 0 0 167.9 48.4" xml:space="preserve">
<g>
	<g>
		<path fill="#211915" d="M6.8,47.8H0V0.6h5.5l15.6,22.9L36.7,0.6h5.4v47.2h-6.7V14.6L23,32.9h-3.8L6.8,14.6V47.8z"/>
	</g>
	<g>
		<path fill="#CC0000" d="M64.6,0.6c10.2,0,15.3,7.9,15.3,15.8c0,7.9-5.1,15.7-15.3,15.7H54.2v15.7h-6.9V0.6H64.6z M64.6,25.4
			c5.7,0,8.6-4.5,8.6-8.9c0-4.5-2.8-9-8.6-9H54.2v17.9H64.6z"/>
		<path fill="#CC0000" d="M88.8,7.1c4.3-4.4,10.4-7.1,17-7.1c6.7,0,12.7,2.8,17.1,7.1c4.2,4.4,7,10.4,7,17.1s-2.8,12.7-7,17.1
			c-4.4,4.5-10.4,7.1-17.1,7.1c-6.6,0-12.7-2.7-17-7.1c-4.2-4.4-7-10.4-7-17.1S84.6,11.5,88.8,7.1z M118,12
			c-3.2-3.2-7.6-5.1-12.2-5.1s-9,2-12.1,5.1c-3.1,3.1-5.1,7.4-5.1,12.2c0,4.8,2,9.1,5.1,12.2c3.1,3.2,7.4,5.1,12.1,5.1s9-2,12.2-5.1
			c3-3.1,5-7.4,5-12.2C123,19.4,121.1,15.1,118,12z"/>
		<path fill="#CC0000" d="M159.9,12.8c-0.9-4.2-5.5-6.1-9.6-6c-3.2,0.1-6.7,1.1-8.6,3.6c-0.9,1.2-1.3,2.8-1.1,4.4
			c0.3,4.9,5.7,5.5,10.7,5.9c6.5,0.8,14.5,2.5,16.3,10c0.2,1,0.3,2.2,0.3,3.1c0,9.1-9,14.4-17.5,14.4c-7.3,0-16.1-4.3-17-12.7
			l-0.1-1.3l6.9-0.1l0.1,1v-0.3c0.5,4.4,5.8,6.7,10.2,6.7c5.1,0,10.6-2.8,10.6-7.7c0-0.5-0.1-1-0.2-1.6c-0.8-3.6-5.7-4.2-10.4-4.7
			c-7.4-0.7-16-2.4-16.7-12.2v0.1c-0.3-3.2,0.5-6.3,2.6-9c3.2-4.1,8.8-6.3,14.3-6.3c7.3,0,14.8,3.8,16.1,12.4L159.9,12.8z"/>
	</g>
</g>
</svg>
