<?xml version="1.0" encoding="utf-8"?>
<!-- Generator: Adobe Illustrator 18.1.1, SVG Export Plug-In . SVG Version: 6.00 Build 0)  -->
<!DOCTYPE svg PUBLIC "-//W3C//DTD SVG 1.1//EN" "http://www.w3.org/Graphics/SVG/1.1/DTD/svg11.dtd">
<svg version="1.1" id="Capa_1" xmlns="http://www.w3.org/2000/svg" xmlns:xlink="http://www.w3.org/1999/xlink" x="0px" y="0px"
	 viewBox="0 0 50.5 49.7" enable-background="new 0 0 50.5 49.7" xml:space="preserve">
<g>
	<g>
		<g>
			<g>
				<path fill="#cc0000" d="M44.4,48.1H18.3c-0.6,0-1-0.5-1-1s0.5-1,1-1h26.2c2.2,0,4.1-1.8,4.1-4.1V20.6L31.6,2H12.3
					C10,2,8.2,3.9,8.2,6.1v21.3c0,0.6-0.5,1-1,1s-1-0.5-1-1V6.1C6.2,2.7,8.9,0,12.3,0h20.2l0.3,0.3l17.8,19.5V42
					C50.5,45.3,47.8,48.1,44.4,48.1z"/>
			</g>
		</g>
	</g>
	<g>
		<g>
			<path fill="#cc0000" d="M48.9,22H36.9c-3.6,0-6.5-2.9-6.5-6.5V1.6c0-0.6,0.3-1.1,0.9-1.3c0.5-0.2,1.1-0.1,1.5,0.3l17.4,18.7
				c0.4,0.5,0.6,1.2,0.3,1.8C50.2,21.6,49.6,22,48.9,22z M32.4,3.2v12.3c0,2.5,2,4.5,4.5,4.5H48L32.4,3.2z"/>
		</g>
	</g>
	<g>
		<g>
			<path fill="#cc0000" d="M15.3,16.7c-2.3,0-4.2-1.9-4.2-4.2s1.9-4.2,4.2-4.2s4.2,1.9,4.2,4.2S17.6,16.7,15.3,16.7z M15.3,10.2
				c-1.2,0-2.2,1-2.2,2.2s1,2.2,2.2,2.2s2.2-1,2.2-2.2S16.5,10.2,15.3,10.2z"/>
		</g>
	</g>
	<g>
		<g>
			<path fill="#cc0000" d="M31.5,12.1h-7.2c-0.5,0-0.9-0.5-0.9-1c0-0.6,0.4-1,0.9-1h7.2c0.5,0,0.9,0.5,0.9,1
				C32.4,11.6,32,12.1,31.5,12.1z"/>
		</g>
	</g>
	<g>
		<g>
			<path fill="#cc0000" d="M31.5,15.6h-7.2c-0.5,0-0.9-0.5-0.9-1c0-0.6,0.4-1,0.9-1h7.2c0.5,0,0.9,0.5,0.9,1
				C32.4,15.2,32,15.6,31.5,15.6z"/>
		</g>
	</g>
	<g>
		<g>
			<path fill="#cc0000" d="M44.3,32.3h-19c-0.5,0-0.9-0.5-0.9-1c0-0.6,0.4-1,0.9-1h19c0.5,0,0.9,0.5,0.9,1
				C45.2,31.9,44.8,32.3,44.3,32.3z"/>
		</g>
	</g>
	<g>
		<g>
			<path fill="#cc0000" d="M44.3,37.4h-19c-0.5,0-0.9-0.5-0.9-1c0-0.6,0.4-1,0.9-1h19c0.5,0,0.9,0.5,0.9,1
				C45.2,36.9,44.8,37.4,44.3,37.4z"/>
		</g>
	</g>
	<g>
		<g>
			<path fill="#cc0000" d="M11.7,41.9c-0.9,0-1.6-0.6-1.6-1.3c0-0.6-0.5-0.9-0.9-0.9s-0.9,0.5-0.9,0.9c0,1.5,1.1,2.7,2.6,3.1v1.5
				c0,0.6,0.5,0.9,0.9,0.9s0.9-0.5,0.9-0.9v-1.5c1.5-0.4,2.6-1.6,2.6-3.1c0-2.2-1.7-3.1-3.1-3.9c-1.3-0.7-2-1.1-2-1.9
				c0-0.3,0.2-0.6,0.4-0.7c0.2-0.2,0.6-0.4,1-0.4l0,0c0.8,0,1.4,0.5,1.4,1.1c0,0.6,0.5,0.9,0.9,0.9s0.9-0.5,0.9-0.9
				c0-1.3-1-2.5-2.4-2.9v-1.5c0-0.6-0.5-0.9-0.9-0.9s-0.9,0.5-0.9,0.9V32c-0.5,0.2-0.9,0.4-1.3,0.7c-0.7,0.6-1,1.3-1,2.2
				c0,2,1.7,2.9,2.9,3.6c1.3,0.7,2,1.2,2,2.1C13.3,41.4,12.6,41.9,11.7,41.9z"/>
		</g>
	</g>
	<g>
		<path fill="#cc0000" d="M11.8,49.7C5.3,49.7,0,44.4,0,37.9c0-6.5,5.3-11.8,11.8-11.8s11.8,5.3,11.8,11.8
			C23.6,44.4,18.3,49.7,11.8,49.7z M11.8,28.1c-5.4,0-9.8,4.4-9.8,9.8c0,5.4,4.4,9.8,9.8,9.8s9.8-4.4,9.8-9.8
			C21.6,32.5,17.2,28.1,11.8,28.1z"/>
	</g>
</g>
</svg>
