<?xml version="1.0" encoding="utf-8"?>
<!-- Generator: Adobe Illustrator 18.1.1, SVG Export Plug-In . SVG Version: 6.00 Build 0)  -->
<!DOCTYPE svg PUBLIC "-//W3C//DTD SVG 1.1//EN" "http://www.w3.org/Graphics/SVG/1.1/DTD/svg11.dtd">
<svg version="1.1" id="Capa_1" xmlns="http://www.w3.org/2000/svg" xmlns:xlink="http://www.w3.org/1999/xlink" x="0px" y="0px"
	 viewBox="0.2 13.4 89.9 58.7" enable-background="new 0.2 13.4 89.9 58.7" xml:space="preserve">
<g>
	<g>
		<g>
			<g>
				<g>
					<path fill="#D93434" d="M51.1,68.4H21.2c-0.6,0-1.2-0.5-1.2-1.2s0.5-1.2,1.2-1.2h29.9c2.6,0,4.7-2.1,4.7-4.7V36.9L36.4,15.7
						h-22c-2.6,0-4.7,2.1-4.7,4.7v24.4c0,0.6-0.5,1.2-1.2,1.2s-1.2-0.5-1.2-1.2V20.4c0-3.9,3.1-7,7-7h23.1l0.3,0.4L58.1,36v25.4
						C58.1,65.2,54.9,68.4,51.1,68.4z"/>
				</g>
			</g>
		</g>
		<g>
			<g>
				<path fill="#D93434" d="M56.2,38.5H42.4c-4.1,0-7.4-3.3-7.4-7.4V15.2c0-0.7,0.4-1.2,1-1.5c0.6-0.2,1.3-0.1,1.7,0.4l19.8,21.3
					c0.5,0.5,0.6,1.3,0.3,2C57.6,38.1,57,38.5,56.2,38.5z M37.3,17.1v14c0,2.8,2.3,5.1,5.1,5.1h12.7L37.3,17.1z"/>
			</g>
		</g>
		<g>
			<g>
				<path fill="#D93434" d="M17.8,32.5c-2.7,0-4.8-2.2-4.8-4.8s2.2-4.8,4.8-4.8s4.8,2.2,4.8,4.8S20.4,32.5,17.8,32.5z M17.8,25.1
					c-1.4,0-2.5,1.1-2.5,2.5s1.1,2.5,2.5,2.5s2.5-1.1,2.5-2.5S19.2,25.1,17.8,25.1z"/>
			</g>
		</g>
		<g>
			<g>
				<path fill="#D93434" d="M36.3,27.2H28c-0.6,0-1.1-0.5-1.1-1.2s0.5-1.2,1.1-1.2h8.2c0.6,0,1.1,0.5,1.1,1.2S36.9,27.2,36.3,27.2z"
					/>
			</g>
		</g>
		<g>
			<g>
				<path fill="#D93434" d="M36.3,31.2H28c-0.6,0-1.1-0.5-1.1-1.2c0-0.6,0.5-1.2,1.1-1.2h8.2c0.6,0,1.1,0.5,1.1,1.2
					C37.3,30.7,36.9,31.2,36.3,31.2z"/>
			</g>
		</g>
		<g>
			<g>
				<path fill="#D93434" d="M51,50.3H29.3c-0.6,0-1.1-0.5-1.1-1.2s0.5-1.2,1.1-1.2H51c0.6,0,1.1,0.5,1.1,1.2S51.5,50.3,51,50.3z"/>
			</g>
		</g>
		<g>
			<g>
				<path fill="#D93434" d="M51,56.2H29.3c-0.6,0-1.1-0.5-1.1-1.2s0.5-1.2,1.1-1.2H51c0.6,0,1.1,0.5,1.1,1.2S51.5,56.2,51,56.2z"/>
			</g>
		</g>
		<g>
			<g>
				<path fill="#D93434" d="M13.7,61.3c-1,0-1.8-0.6-1.8-1.4c0-0.6-0.5-1.1-1.1-1.1c-0.5,0-1.1,0.5-1.1,1.1c0,1.7,1.3,3.1,3,3.5v1.7
					c0,0.6,0.5,1.1,1.1,1.1s1.1-0.5,1.1-1.1v-1.7c1.7-0.4,3-1.8,3-3.5c0-2.5-2-3.6-3.5-4.4c-1.5-0.8-2.2-1.3-2.2-2.2
					c0-0.4,0.3-0.7,0.4-0.8c0.3-0.3,0.7-0.4,1.2-0.4l0,0c0.9,0,1.6,0.5,1.6,1.3c0,0.6,0.5,1.1,1.1,1.1c0.5,0,1.1-0.5,1.1-1.1
					c0-1.5-1.2-2.9-2.7-3.3v-1.7c0-0.6-0.5-1.1-1.1-1.1s-1.1,0.5-1.1,1.1V50c-0.5,0.2-1.1,0.4-1.5,0.8c-0.8,0.6-1.2,1.5-1.2,2.5
					c0,2.3,1.9,3.3,3.3,4.1c1.5,0.8,2.3,1.3,2.3,2.4C15.5,60.7,14.7,61.3,13.7,61.3z"/>
			</g>
		</g>
		<g>
			<path fill="#D93434" d="M13.8,70.3c-7.5,0-13.5-6.1-13.5-13.5c0-7.5,6.1-13.5,13.5-13.5c7.5,0,13.5,6.1,13.5,13.5
				C27.3,64.2,21.2,70.3,13.8,70.3z M13.8,45.6c-6.2,0-11.2,5-11.2,11.2s5,11.2,11.2,11.2c6.2,0,11.2-5,11.2-11.2
				S19.9,45.6,13.8,45.6z"/>
		</g>
	</g>
	<g>
		<path fill="#FFFFFF" d="M64.3,67c0,0.9-0.8,1.7-1.7,1.7H42.9c-0.9,0-1.7-0.8-1.7-1.7V47.3c0-0.9,0.8-1.7,1.7-1.7h19.7
			c0.9,0,1.7,0.8,1.7,1.7V67z"/>
		<g>
			<path fill="#D93434" d="M62.2,43.7H43.3c-2.2,0-4,1.8-4,4v18.9c0,2.2,1.8,4,4,4h18.9c2.2,0,4-1.8,4-4V47.7
				C66.2,45.5,64.4,43.7,62.2,43.7z M63.8,66.6c0,0.9-0.7,1.6-1.6,1.6H43.3c-0.9,0-1.6-0.7-1.6-1.6V47.7c0-0.9,0.7-1.6,1.6-1.6h18.9
				c0.9,0,1.6,0.7,1.6,1.6V66.6z"/>
			<circle fill="#D93434" cx="46.4" cy="50.7" r="2.3"/>
			<circle fill="#D93434" cx="59.2" cy="50.7" r="2.3"/>
			<circle fill="#D93434" cx="46.4" cy="63.5" r="2.3"/>
			<circle fill="#D93434" cx="59.2" cy="63.5" r="2.3"/>
			<path fill="#D93434" d="M89.9,49.9L83.7,32c-0.6-1.6-2.1-2.7-3.7-2.7c-0.4,0-0.9,0.1-1.3,0.2l-17.8,6.2c-1,0.3-1.8,1.1-2.3,2
				c-0.5,1-0.5,2-0.2,3l1.1,3.3c0.4,0.4,0.8,0.8,1.2,1.2c0.3-0.6,0.9-0.6,1.2-1.1l-1.4-4.1c-0.1-0.4-0.1-0.9,0.1-1.2
				c0.2-0.4,0.5-0.7,0.9-0.8l17.8-6.2c0.2-0.1,0.3-0.1,0.5-0.1c0.7,0,1.3,0.4,1.5,1.1l6.2,17.8c0.1,0.4,0.1,0.9-0.1,1.2
				c-0.2,0.4-0.5,0.7-0.9,0.8l-17.8,6.2c-0.8,0.3-1.8-0.2-2.1-1l-1-2.7c-0.4,0,0,2-0.4,2c0,0.9,0.1,1.8,0,2.6c0.7,0.9,1.8,1.4,3,1.4
				c0.4,0,0.9-0.1,1.3-0.2l17.8-6.2c1-0.3,1.8-1.1,2.3-2C90.2,51.9,90.2,50.9,89.9,49.9z"/>
			<circle fill="#D93434" cx="66" cy="41.4" r="2.3"/>
			<circle fill="#D93434" cx="78.1" cy="37.2" r="2.3"/>
			<circle fill="#D93434" cx="70.2" cy="53.5" r="2.3"/>
			<circle fill="#D93434" cx="52.8" cy="57.5" r="2.3"/>
			<circle fill="#D93434" cx="82.3" cy="49.3" r="2.3"/>
		</g>
	</g>
	<g>
		<path fill="#FFFFFF" d="M65.4,66c0,2.6-2.1,4.8-4.7,4.8H40.2c-2.6,0-4.7-2.1-4.7-4.8V28.4c0-2.6,2.1-4.8,4.7-4.8h20.5
			c2.6,0,4.7,2.1,4.7,4.8V66z"/>
		<path fill="#D93434" d="M60.2,22.4H40.7c-3.9,0-7,3.1-7,7v35.7c0,3.9,3.1,7,7,7h19.5c3.9,0,7-3.1,7-7V29.4
			C67.2,25.6,64.1,22.4,60.2,22.4z M64.7,65.1c0,2.5-2,4.5-4.5,4.5H40.7c-2.5,0-4.5-2-4.5-4.5V29.4c0-2.5,2-4.5,4.5-4.5h19.5
			c2.5,0,4.5,2,4.5,4.5V65.1z"/>
		<path fill="#D93434" d="M58,28.6H42.9c-1.7,0-3,1.3-3,3v26.3c0,1.7,1.3,3,3,3H58c1.7,0,3-1.3,3-3V31.6C61,30,59.7,28.6,58,28.6z
			 M58.5,57.9c0,0.3-0.2,0.5-0.5,0.5H42.9c-0.3,0-0.5-0.2-0.5-0.5V31.6c0-0.3,0.2-0.5,0.5-0.5H58c0.3,0,0.5,0.2,0.5,0.5V57.9z"/>
		<circle fill="#D93434" cx="50.9" cy="65" r="2.1"/>
	</g>
</g>
</svg>
