<?xml version="1.0" encoding="utf-8"?>
<!-- Generator: Adobe Illustrator 19.2.0, SVG Export Plug-In . SVG Version: 6.00 Build 0)  -->
<svg version="1.1" id="Capa_1" xmlns="http://www.w3.org/2000/svg" xmlns:xlink="http://www.w3.org/1999/xlink" x="0px" y="0px"
	 viewBox="0 0 46 33.7" style="enable-background:new 0 0 46 33.7;" xml:space="preserve">
<style type="text/css">
	.st0{fill:#D93434;}
</style>
<g>
	<path class="st0" d="M44.5,2.7C30,1.1,28.5,0.5,28.4,0.5l-0.3-0.2c0,0-0.9-0.3-1.9-0.3c-1.1,0-2.5,0.3-3.5,1.5
		c-0.1,0.2-1.5,1.5-2.8,2.8c-2.4,2.3-5.6,5.4-6.9,6.9H4.1c-2.3,0-4.1,1.8-4.1,4.1v14.3c0,2.3,1.8,4.1,4.1,4.1h24.3
		c2.3,0,4.1-1.8,4.1-4.1l-0.1-9.9l4-0.5c0.2,0,4.4-1.1,7.3-3.8h0.7c0.9,0,1.7-0.8,1.7-1.7V4.4C46,3.6,45.3,2.8,44.5,2.7z M30.9,26.1
		L1.5,26.2v-1.7h29.4L30.9,26.1z M28.4,32.2H4.1c-1.4,0-2.6-1.2-2.6-2.6v-1.9h29.4l0,1.9C31,31,29.8,32.2,28.4,32.2z M30.8,22.9
		L1.5,23.1v-7.8c0-1.4,1.2-2.6,2.6-2.6h24.3c0.2,0,0.3,0,0.5,0.1c-0.6,0.5-1.3,0.9-1.7,1.2c-1.2,0.1-7.2,1-7.2,4.7l0,0.3
		c0,0.1,0.1,0.8,0.9,1.4c0.6,0.4,1.5,0.6,2.6,0.6c1.3,0,2.9-0.3,4.7-0.8l2.5-0.3L30.8,22.9z M44.3,13.7L43,13.8l-0.2,0.2
		c-2.5,2.4-6.1,3.4-6.8,3.6l-8.1,1c-1.8,0.5-3.3,0.8-4.4,0.8c-0.9,0-1.4-0.2-1.6-0.3c-0.2-0.1-0.2-0.2-0.2-0.4c0-2,4.1-2.9,5.8-3
		l0.3-0.1c0.1,0,2.6-1.3,3.6-2.5l0.2-0.5l-0.2-0.3c-0.3-0.6-0.8-0.9-1.4-0.9h-1.5c0,0,0,0,0,0H15.2c1.5-1.6,3.9-3.8,5.8-5.7
		c2.1-2,2.8-2.7,3-2.9c0.5-0.6,1.2-0.9,2.2-0.9c0.4,0,0.8,0,1.3,0.1c0.6,0.4,3.1,1,16.9,2.6L44.3,13.7z"/>
</g>
</svg>
