<?xml version="1.0" encoding="utf-8"?>
<!-- Generator: Adobe Illustrator 18.1.1, SVG Export Plug-In . SVG Version: 6.00 Build 0)  -->
<!DOCTYPE svg PUBLIC "-//W3C//DTD SVG 1.1//EN" "http://www.w3.org/Graphics/SVG/1.1/DTD/svg11.dtd">
<svg version="1.1" id="Capa_1" xmlns="http://www.w3.org/2000/svg" xmlns:xlink="http://www.w3.org/1999/xlink" x="0px" y="0px"
	 viewBox="0 0 33.1 49.1" enable-background="new 0 0 33.1 49.1" xml:space="preserve">
<g>
	<path fill="#cc0000" d="M26.2,0H6.9C3.1,0,0,3.1,0,6.9v35.3c0,3.8,3.1,6.9,6.9,6.9h19.3c3.8,0,6.9-3.1,6.9-6.9V6.9
		C33.1,3.1,30,0,26.2,0z M30.7,42.2c0,2.5-2,4.4-4.4,4.4H6.9c-2.5,0-4.4-2-4.4-4.4V6.9c0-2.5,2-4.4,4.4-4.4h19.3
		c2.5,0,4.5,2,4.5,4.4V42.2z"/>
	<path fill="#cc0000" d="M24,6.1H9.1c-1.6,0-3,1.3-3,3v26c0,1.6,1.3,3,3,3H24c1.6,0,3-1.3,3-3v-26C27,7.5,25.7,6.1,24,6.1z
		 M24.5,35.1c0,0.3-0.2,0.5-0.5,0.5H9.1c-0.3,0-0.5-0.2-0.5-0.5v-26c0-0.3,0.2-0.5,0.5-0.5H24c0.3,0,0.5,0.2,0.5,0.5V35.1z"/>
	<circle fill="#cc0000" cx="17" cy="42.1" r="2"/>
</g>
</svg>
