<?xml version="1.0" encoding="utf-8"?>
<!-- Generator: Adobe Illustrator 18.1.1, SVG Export Plug-In . SVG Version: 6.00 Build 0)  -->
<!DOCTYPE svg PUBLIC "-//W3C//DTD SVG 1.1//EN" "http://www.w3.org/Graphics/SVG/1.1/DTD/svg11.dtd">
<svg version="1.1" id="Capa_1" xmlns="http://www.w3.org/2000/svg" xmlns:xlink="http://www.w3.org/1999/xlink" x="0px" y="0px"
	 viewBox="0 0 171.1 137" enable-background="new 0 0 171.1 137" xml:space="preserve">
<g>
	<g>
		<g>
			<path fill="#333333" d="M74.6,89.5h-28c-0.8,0-1.5,0.7-1.5,1.5v31.3c0,0.8,0.7,1.5,1.5,1.5h28c0.8,0,1.5-0.7,1.5-1.5V91
				C76.1,90.2,75.4,89.5,74.6,89.5z M73.1,120.8h-25V92.5h25L73.1,120.8L73.1,120.8z"/>
			<path fill="#333333" d="M88.5,60.8v-9.5c0-0.8-0.7-1.5-1.5-1.5H1.5c-0.8,0-1.5,0.7-1.5,1.5V61c0,0,0,0,0,0.1v74.4
				c0,0.8,0.7,1.5,1.5,1.5h85.6c0.8,0,1.5-0.7,1.5-1.5V61C88.6,60.9,88.6,60.9,88.5,60.8z M21.5,62.6c-0.7,4.3-4.4,7.6-9,7.6
				s-8.3-3.3-9-7.6H21.5z M42.6,62.6c-0.7,4.3-4.4,7.6-9,7.6s-8.3-3.3-9-7.6H42.6z M63.8,62.6c-0.7,4.3-4.4,7.6-9,7.6
				s-8.3-3.3-9-7.6H63.8z M85,62.6c-0.7,4.3-4.4,7.6-9,7.6s-8.3-3.3-9-7.6H85z M85.5,52.8v6.7H3v-6.7H85.5z M12.1,133.9V92.5h25
				v41.4H12.1z M40.1,134V91c0-0.8-0.7-1.5-1.5-1.5h-28c-0.8,0-1.5,0.7-1.5,1.5V134H3V68.5c2.2,2.8,5.6,4.7,9.5,4.7
				c4.6,0,8.5-2.5,10.6-6.3c2.1,3.7,6,6.3,10.6,6.3s8.5-2.5,10.6-6.3c2.1,3.7,6,6.3,10.6,6.3s8.5-2.5,10.6-6.3
				c2.1,3.7,6,6.3,10.6,6.3c3.9,0,7.3-1.8,9.5-4.7V134H40.1z"/>
			<path fill="#333333" d="M54.9,105.3c0.4,0,0.8-0.1,1.1-0.4l5.7-5.7c0.6-0.6,0.6-1.5,0-2.1s-1.5-0.6-2.1,0l-5.7,5.7
				c-0.6,0.6-0.6,1.5,0,2.1C54.1,105.2,54.5,105.3,54.9,105.3z"/>
			<path fill="#333333" d="M61.5,116.2c-0.6,0.6-0.6,1.5,0,2.1c0.3,0.3,0.7,0.4,1.1,0.4s0.8-0.1,1.1-0.4l5.7-5.7
				c0.6-0.6,0.6-1.5,0-2.1s-1.5-0.6-2.1,0L61.5,116.2z"/>
			<path fill="#333333" d="M53.6,117.8c0.4,0,0.8-0.1,1.1-0.4l13-13c0.6-0.6,0.6-1.5,0-2.1s-1.5-0.6-2.1,0l-13,13
				c-0.6,0.6-0.6,1.5,0,2.1C52.8,117.7,53.2,117.8,53.6,117.8z"/>
			<circle fill="#333333" cx="31.3" cy="112.1" r="2.3"/>
		</g>
	</g>
	<path fill="#333333" d="M89.1,70.2l6.7-17.3c-8.6-5.8-13.5-13.8-13.5-22.1c0-17,19.9-30.7,44.4-30.7c24.5,0,44.4,13.8,44.4,30.7
		s-19.9,30.7-44.4,30.7c-5.8,0-11.5-0.8-16.9-2.3L89.1,70.2z M126.7,2.9c-22.9,0-41.5,12.5-41.5,27.9c0,7.7,4.8,15.1,13.2,20.3
		l1,0.6L94.6,64l15-7.9l0.4,0.2c5.3,1.6,10.9,2.3,16.6,2.3c22.9,0,41.5-12.5,41.5-27.9C168.2,15.4,149.6,2.9,126.7,2.9z"/>
	<path fill="#333333" d="M109.3,27.9c0,4.7,3.3,10,9.7,15.7c4.7,4.1,9.2,6.9,9.4,7l0.7,0.4l0.7-0.4c0.8-0.5,19.1-11.7,19.1-22.7
		c0-6.1-4.5-10.7-10.6-10.7c-4.1,0-7.5,2.4-9.2,4.9c-1.7-2.5-5.1-4.9-9.2-4.9C113.8,17.1,109.3,21.8,109.3,27.9z M146.3,27.9
		c0,8.5-13.7,17.8-17.2,20c-3.4-2.2-17.2-11.6-17.2-20c0-4.6,3.4-8.1,7.9-8.1c4.9,0,8.3,5.9,8.7,6.6l0.4,0.8l0.4-0.8
		c0.8-1.4,4.5-6.6,8.9-6.6C142.9,19.8,146.3,23.3,146.3,27.9z"/>
</g>
</svg>
