<?xml version="1.0" encoding="utf-8"?>
<!-- Generator: Adobe Illustrator 18.1.1, SVG Export Plug-In . SVG Version: 6.00 Build 0)  -->
<!DOCTYPE svg PUBLIC "-//W3C//DTD SVG 1.1//EN" "http://www.w3.org/Graphics/SVG/1.1/DTD/svg11.dtd">
<svg version="1.1" id="Capa_1" xmlns="http://www.w3.org/2000/svg" xmlns:xlink="http://www.w3.org/1999/xlink" x="0px" y="0px"
	 viewBox="0 0 71.1 47.2" enable-background="new 0 0 71.1 47.2" xml:space="preserve">
<g>
	<g transform="translate(0,-952.36218)">
		<path fill="#cc0000" d="M23.1,999.1C10.4,999.1,0,988.7,0,976c0-12.7,10.4-23.1,23.1-23.1c12.7,0,23.1,10.4,23.1,23.1
			C46.2,988.7,35.9,999.1,23.1,999.1z M23.1,955.2c-11.5,0-20.8,9.3-20.8,20.8c0,11.5,9.3,20.8,20.8,20.8s20.8-9.3,20.8-20.8
			C43.9,964.5,34.6,955.2,23.1,955.2z M23.1,989.1c-7.3,0-13.2-5.9-13.2-13.2c0-7.3,5.9-13.2,13.2-13.2s13.2,5.9,13.2,13.2
			C36.3,983.2,30.4,989.1,23.1,989.1z M23.1,965.1c-6,0-10.9,4.9-10.9,10.9c0,6,4.9,10.9,10.9,10.9c6,0,10.9-4.9,10.9-10.9
			C34,970,29.1,965.1,23.1,965.1z"/>
	</g>
	<g>
		<path fill="#cc0000" d="M52.4,47.2c-1.3,0-2.4-1.1-2.4-2.4V16.9c-2.4-1.3-4-4.5-4-8C46,4,49.1,0,52.8,0s6.8,4,6.8,8.9
			c0,3.5-1.6,6.7-4,8.1l0,27.8c0,1.3-1.1,2.4-2.4,2.4H52.4z M52.8,2c-2.6,0-4.8,3.1-4.8,6.8c0,3,1.4,5.7,3.4,6.5l0.6,0.2l0.1,29.1
			c0,0.2,0.2,0.4,0.4,0.4h0.8c0.2,0,0.4-0.2,0.4-0.4v-29l0.6-0.3c2-0.9,3.4-3.6,3.4-6.5C57.6,5.1,55.5,2,52.8,2z"/>
	</g>
	<g>
		<path fill="#cc0000" d="M65.5,47.2c-1.3,0-2.4-1.1-2.4-2.4V17.3c-1.5-0.9-2.4-2.6-2.4-4.4V1.3c0-0.6,0.5-1,1-1s1,0.5,1,1V13
			c0,1.2,0.7,2.4,1.9,2.9l0.5,0.2l0.1,28.7c0,0.2,0.2,0.4,0.4,0.4h0.8c0.2,0,0.4-0.2,0.4-0.4V16.2l0.6-0.3c1.1-0.5,1.9-1.7,1.9-2.9
			V1.3c0-0.6,0.5-1,1-1c0.6,0,1,0.5,1,1V13c0,1.8-1,3.5-2.5,4.5l0,27.4c0,0.6-0.2,1.2-0.7,1.7c-0.5,0.5-1.1,0.7-1.7,0.7H65.5z"/>
	</g>
	<g>
		<path fill="#cc0000" d="M64.6,10.8c-0.6,0-1-0.5-1-1V1.3c0-0.6,0.5-1,1-1c0.6,0,1,0.5,1,1v8.5C65.6,10.3,65.1,10.8,64.6,10.8z"/>
	</g>
	<g>
		<path fill="#cc0000" d="M67.2,10.8c-0.6,0-1-0.5-1-1V1.3c0-0.6,0.5-1,1-1s1,0.5,1,1v8.5C68.2,10.3,67.8,10.8,67.2,10.8z"/>
	</g>
</g>
</svg>
