<?xml version="1.0" encoding="utf-8"?>
<!-- Generator: Adobe Illustrator 17.0.0, SVG Export Plug-In . SVG Version: 6.00 Build 0)  -->
<!DOCTYPE svg PUBLIC "-//W3C//DTD SVG 1.1//EN" "http://www.w3.org/Graphics/SVG/1.1/DTD/svg11.dtd">
<svg version="1.1" id="Creative_Man_With_Lightbulb_Head"
	 xmlns="http://www.w3.org/2000/svg" xmlns:xlink="http://www.w3.org/1999/xlink" x="0px" y="0px" width="30px" height="30px"
	 viewBox="0 0 30 30" enable-background="new 0 0 30 30" xml:space="preserve">
<path fill="#FFFFFF" d="M15,0.209C6.822,0.209,0.209,6.822,0.209,15S6.822,29.791,15,29.791S29.791,23.178,29.791,15
	C29.818,6.822,23.178,0.209,15,0.209z M22.261,11.276c0,0.162,0,0.324,0,0.486c0,4.966-3.779,10.662-10.662,10.662
	c-2.105,0-4.076-0.621-5.749-1.673c0.297,0.027,0.594,0.054,0.891,0.054c1.754,0,3.374-0.594,4.643-1.592
	c-1.646-0.027-3.023-1.107-3.509-2.591c0.216,0.054,0.459,0.054,0.702,0.054c0.351,0,0.675-0.054,0.999-0.135
	C7.849,16.19,6.58,14.679,6.58,12.87c0-0.027,0-0.027,0-0.054c0.513,0.27,1.08,0.459,1.7,0.459
	c-0.999-0.675-1.673-1.808-1.673-3.131c0-0.675,0.189-1.323,0.513-1.889c1.835,2.267,4.616,3.752,7.72,3.914
	c-0.054-0.27-0.108-0.567-0.108-0.864c0-2.078,1.673-3.752,3.752-3.752c1.08,0,2.051,0.459,2.726,1.188
	c0.864-0.162,1.646-0.486,2.375-0.918c-0.27,0.864-0.864,1.619-1.646,2.078c0.756-0.081,1.485-0.297,2.159-0.594
	C23.637,10.088,23.016,10.763,22.261,11.276z"/>
</svg>
