<?xml version="1.0" encoding="utf-8"?>
<!-- Generator: Adobe Illustrator 18.1.1, SVG Export Plug-In . SVG Version: 6.00 Build 0)  -->
<!DOCTYPE svg PUBLIC "-//W3C//DTD SVG 1.1//EN" "http://www.w3.org/Graphics/SVG/1.1/DTD/svg11.dtd">
<svg version="1.1" id="Capa_1" xmlns="http://www.w3.org/2000/svg" xmlns:xlink="http://www.w3.org/1999/xlink" x="0px" y="0px"
	 viewBox="0 0 66.2 48.4" enable-background="new 0 0 66.2 48.4" xml:space="preserve">
<g>
	<g>
		<path fill="#cc0000" d="M5.9,48.4c-3.2,0-5.9-2.6-5.9-5.9L0,22c0-3.2,2.6-5.9,5.9-5.9l34.9,0c1.4,0,3.7,1.4,3.7,1.4l-1,2
			c-0.6-0.5-1.3-1.2-2.7-1.2l-34.9,0c-2.1,0-3.7,1.7-3.7,3.7l0,20.5c0,2.1,1.7,3.7,3.7,3.7l34.9,0c2.1,0,3.7-1.7,3.7-3.7L44.2,27
			l2.3,0.5l0.1,15c0,3.2-2.6,5.9-5.9,5.9L5.9,48.4z"/>
	</g>
	<g>
		<path fill="#cc0000" d="M33.9,30.2c-1.6,0-2.9-0.3-3.8-0.9c-1.1-0.8-1.3-1.8-1.3-2l0-0.5c0-5.4,8.6-6.6,10.3-6.7
			c0.8-0.4,2.6-1.8,3.6-2.5c-0.5,0.2-18,0.5-18,0.5c-0.8,0-1.3,0-1.7,0l-0.7,0l-0.8,0l-2,0L17.7,18l0.6-1.5c1.7-2,6.6-6.8,10.2-10.2
			c1.9-1.9,3.9-3.7,4.1-4C34,0.4,36.1,0,37.7,0c1.5,0,2.7,0.4,2.8,0.4l0.4,0.3c0.2,0.1,2.3,1,23.1,3.2c1.2,0.1,2.2,1.2,2.2,2.4
			l0,13.4c0,1.3-1.1,2.4-2.4,2.4h-0.9c-4.2,4-10.3,5.5-10.5,5.5L40.7,29C38,29.8,35.7,30.2,33.9,30.2z M43,16.1
			c0.9,0,1.6,0.5,2.1,1.3l0.2,0.5L45,18.7c-1.4,1.8-5,3.5-5.1,3.6l-0.4,0.1c-2.3,0.2-8.3,1.4-8.3,4.3c0,0.3,0.1,0.4,0.3,0.5
			c0.3,0.2,1,0.5,2.3,0.5c1.6,0,3.8-0.4,6.3-1.1l11.6-1.4c1-0.3,6.2-1.8,9.8-5.2l0.3-0.2l1.9-0.1l0-13.4C43.9,4.1,40.3,3.2,39.5,2.6
			c-0.6-0.1-1.2-0.2-1.8-0.2c-1.4,0-2.5,0.4-3.2,1.3C34.3,4,33.3,5,30.2,7.9c-2.8,2.7-6.2,6-8.4,8.3l0.3,0c0.2,0,0.4,0,0.7,0
			c0.4,0,0.9-0.1,1.6-0.1L43,16.1z"/>
	</g>
	<g>
		<polygon fill="#cc0000" points="1.1,39.8 0.8,37.7 45.6,37.5 45.9,39.8 		"/>
	</g>
	<g>
		<polygon fill="#cc0000" points="1.1,35.3 0.8,33.2 45.6,33 45.9,35.3 		"/>
	</g>
</g>
</svg>
