<?xml version="1.0" encoding="utf-8"?>
<!-- Generator: Adobe Illustrator 17.0.0, SVG Export Plug-In . SVG Version: 6.00 Build 0)  -->
<!DOCTYPE svg PUBLIC "-//W3C//DTD SVG 1.1//EN" "http://www.w3.org/Graphics/SVG/1.1/DTD/svg11.dtd">
<svg version="1.1" id="Creative_Man_With_Lightbulb_Head"
	 xmlns="http://www.w3.org/2000/svg" xmlns:xlink="http://www.w3.org/1999/xlink" x="0px" y="0px" width="30px" height="30px"
	 viewBox="291 381 30 30" enable-background="new 291 381 30 30" xml:space="preserve">
<g>
	<path fill="#FFFFFF" d="M306,381.209c-8.178,0-14.791,6.613-14.791,14.791s6.613,14.791,14.791,14.791s14.791-6.613,14.791-14.791
		S314.178,381.209,306,381.209z M314.988,399.563c0,1.458-1.296,2.726-2.78,2.726h-12.416c-1.458,0-2.645-1.269-2.645-2.726v-7.099
		c0-1.458,1.188-2.591,2.645-2.591h12.416c1.458,0,2.78,1.134,2.78,2.591V399.563z"/>
	<polygon fill="#FFFFFF" points="304.192,398.996 309.239,395.676 304.192,392.329 	"/>
</g>
</svg>
