<?xml version="1.0" encoding="utf-8"?>
<!-- Generator: Adobe Illustrator 18.1.1, SVG Export Plug-In . SVG Version: 6.00 Build 0)  -->
<!DOCTYPE svg PUBLIC "-//W3C//DTD SVG 1.1//EN" "http://www.w3.org/Graphics/SVG/1.1/DTD/svg11.dtd">
<svg version="1.1" id="Creative_Man_With_Lightbulb_Head"
	 xmlns="http://www.w3.org/2000/svg" xmlns:xlink="http://www.w3.org/1999/xlink" x="0px" y="0px" viewBox="0 0 109.7 109.7"
	 enable-background="new 0 0 109.7 109.7" xml:space="preserve">
<path fill="#FFFFFF" d="M54.8,0C24.5,0,0,24.5,0,54.8c0,30.3,24.5,54.8,54.8,54.8s54.8-24.5,54.8-54.8C109.7,24.5,85.1,0,54.8,0z
	 M81.7,41c0,0.6,0,1.2,0,1.8c0,18.4-14,39.5-39.5,39.5c-7.8,0-15.1-2.3-21.3-6.2c1.1,0.1,2.2,0.2,3.3,0.2c6.5,0,12.5-2.2,17.2-5.9
	c-6.1-0.1-11.2-4.1-13-9.6c0.8,0.2,1.7,0.2,2.6,0.2c1.3,0,2.5-0.2,3.7-0.5c-6.4-1.3-11.1-6.9-11.1-13.6c0-0.1,0-0.1,0-0.2
	c1.9,1,4,1.7,6.3,1.7c-3.7-2.5-6.2-6.7-6.2-11.6c0-2.5,0.7-4.9,1.9-7c6.8,8.4,17.1,13.9,28.6,14.5c-0.2-1-0.4-2.1-0.4-3.2
	c0-7.7,6.2-13.9,13.9-13.9c4,0,7.6,1.7,10.1,4.4c3.2-0.6,6.1-1.8,8.8-3.4c-1,3.2-3.2,6-6.1,7.7c2.8-0.3,5.5-1.1,8-2.2
	C86.8,36.6,84.5,39.1,81.7,41z"/>
</svg>
